<?xml version="1.0" encoding="UTF-8"?>
<svg version="1.1" xmlns="http://www.w3.org/2000/svg" width="1536" height="1024">
<path d="M0 0 C506.88 0 1013.76 0 1536 0 C1536 337.92 1536 675.84 1536 1024 C1029.12 1024 522.24 1024 0 1024 C0 686.08 0 348.16 0 0 Z " fill="#FAFAFB" transform="translate(0,0)"/>
<path d="M0 0 C506.88 0 1013.76 0 1536 0 C1536 337.92 1536 675.84 1536 1024 C1029.12 1024 522.24 1024 0 1024 C0 686.08 0 348.16 0 0 Z M862.51123047 45.05126953 C812.86970117 45.78458399 756.66178124 56.56229589 712.3984375 79.796875 C709.77068672 81.11503011 707.10234878 82.21571095 704.375 83.3125 C699.41062197 85.34309076 694.60603475 87.60098478 689.8125 90 C689.1716748 90.32009033 688.53084961 90.64018066 687.87060547 90.9699707 C686.92338623 91.44889771 686.92338623 91.44889771 685.95703125 91.9375 C685.03716607 92.3977799 685.03716607 92.3977799 684.09871775 92.86735839 C681.99848634 93.95139546 681.99848634 93.95139546 680.15698093 95.273166 C673.21298477 99.85873994 666.52024839 99.70010894 658.43190002 99.6257782 C656.95869712 99.63066298 655.48550016 99.63774501 654.01231712 99.64682227 C649.98138831 99.66538427 645.95106409 99.65305154 641.92015254 99.635553 C637.56626205 99.62214462 633.21246259 99.63767291 628.85858154 99.64971924 C621.31871013 99.66672675 613.77901452 99.66575556 606.23913765 99.65271568 C595.32695835 99.63404581 584.41496075 99.64487162 573.50278806 99.66319225 C555.78301547 99.69232899 538.06329922 99.70069736 520.34350586 99.69458008 C503.15795245 99.68871858 485.97241799 99.68764456 468.78686523 99.6965332 C467.19935692 99.69734706 467.19935692 99.69734706 465.57977773 99.69817736 C454.0211254 99.70434611 442.46247784 99.71308464 430.90383053 99.72552967 C429.37919436 99.7271684 429.37919436 99.7271684 427.82375745 99.72884024 C423.75999299 99.73325987 419.69622864 99.73773393 415.63246464 99.74256585 C403.74492758 99.75667491 391.85745423 99.76272174 379.96991085 99.75402997 C372.51219302 99.74884149 365.05449629 99.75022404 357.59677953 99.75673302 C353.29581327 99.76017551 348.99491272 99.76024844 344.69395256 99.7515049 C340.75296663 99.7435137 336.81209225 99.74472634 332.87110805 99.75307081 C331.44926953 99.75444423 330.02742272 99.75245669 328.6055953 99.74667271 C310.03014867 99.67563575 296.20993606 103.83284869 282.3125 116.4375 C270.59828605 129.41811545 265.70794084 143.31784854 265.96923828 160.71313477 C265.98533449 162.43737951 266.00103263 164.16162801 266.01638794 165.88587952 C266.02592625 166.78988054 266.03546455 167.69388157 266.0452919 168.62527657 C266.09756993 174.50929647 266.09107438 180.39363341 266.09665108 186.27784824 C266.10481974 191.41237079 266.1321691 196.54536465 266.20214844 201.67944336 C266.7540094 244.36724963 266.7540094 244.36724963 255.35122681 261.79048157 C234.96438377 295.126932 228.83255931 344.81915516 226 383 C225.91459961 384.12067871 225.82919922 385.24135742 225.74121094 386.39599609 C224.98495187 397.22351162 224.75742608 408.02259545 224.75 418.875 C224.74932526 419.77152283 224.74865051 420.66804565 224.74795532 421.59173584 C224.79198546 458.64042322 232.54729511 492.87277264 245.95019531 527.28955078 C255.36391845 551.59447038 260.66137004 574.24193935 262.5625 600.25 C262.75126018 602.78069494 262.94148965 605.31126917 263.13328552 607.84173584 C263.25108772 609.40103215 263.36701436 610.96047188 263.48060608 612.52008057 C263.75038348 616.13927466 264.08136049 619.73332438 264.52563477 623.33544922 C265.51020208 631.98207812 265.30435577 640.73384608 265.35009766 649.42480469 C265.36657075 651.7071356 265.3937445 653.9894168 265.43212891 656.27148438 C265.67840189 671.04786324 264.65347978 683.95174283 260 698 C259.64341309 699.16241211 259.28682617 700.32482422 258.91943359 701.52246094 C257.99100558 704.51134358 257.00872145 707.47489331 256 710.4375 C255.68289062 711.39591797 255.36578125 712.35433594 255.0390625 713.34179688 C253.40653738 718.19692658 251.63616567 722.93883471 249.62109375 727.6484375 C246.35850085 735.35486394 243.7027918 743.25121048 241.0625 751.1875 C240.79954132 751.97657745 240.53658264 752.76565491 240.26565552 753.5786438 C235.73926507 767.22597695 231.79183324 780.88108312 229 795 C228.82645996 795.83789062 228.65291992 796.67578125 228.47412109 797.5390625 C226.0948624 809.40005541 225.70088356 821.25144949 225.625 833.3125 C225.6169635 834.0224411 225.608927 834.7323822 225.60064697 835.46383667 C225.48402238 849.02704156 227.21065921 862.12869112 231.6875 875 C231.94096191 875.74000244 232.19442383 876.48000488 232.45556641 877.24243164 C238.47340191 894.19308949 247.67206335 907.92685129 260 921 C260.67417969 921.75023437 261.34835937 922.50046875 262.04296875 923.2734375 C271.97907633 933.89929364 284.86083239 941.05434315 298 947 C299.12277344 947.51175781 300.24554688 948.02351562 301.40234375 948.55078125 C377.44979827 981.07052147 477.04790993 963.35791733 556.94921875 956.65625 C557.77924345 956.58714983 558.60926815 956.51804966 559.46444511 956.44685555 C569.13069464 955.6398854 578.7788577 954.73006375 588.42337418 953.69455528 C594.28556831 953.0670495 600.14901628 952.52473599 606.02734375 952.0703125 C607.96834441 951.91538104 609.90934371 951.76043242 611.8503418 951.60546875 C612.84061371 951.52731934 613.83088562 951.44916992 614.85116577 951.36865234 C634.83359494 949.79162208 634.83359494 949.79162208 654.796875 947.9921875 C655.65480148 947.91009033 656.51272797 947.82799316 657.39665222 947.7434082 C658.25277603 947.66147217 659.10889984 947.57953613 659.9909668 947.49511719 C749.51492182 938.9377966 840.15703303 935.72984804 934.39941406 941.2668457 C945.14551136 941.92214568 955.88156221 942.36553638 966.64453125 942.65820312 C972.27364517 942.82141412 977.81547555 943.14649517 983.41259766 943.75708008 C1058.50490769 950.80716957 1122.85705365 935.62805848 1181.359375 887.23828125 C1185.66387782 883.58964203 1189.84400569 879.81623419 1194 876 C1194.52416504 875.52095215 1195.04833008 875.0419043 1195.58837891 874.54833984 C1203.74111109 867.09651057 1211.77112887 859.67983672 1218.984375 851.296875 C1222.29091809 847.5289538 1225.73205951 843.88351873 1229.15625 840.22265625 C1232.01629664 837.06395797 1234.60663408 833.71772404 1237.20166016 830.34008789 C1238.93814606 828.08048737 1240.69716228 825.84071273 1242.46484375 823.60546875 C1249.0264465 815.27320093 1255.25387138 806.91761712 1261 798 C1261.79275451 796.81841668 1262.5884942 795.63883242 1263.38671875 794.4609375 C1269.24110158 785.8162219 1274.77419845 777.03839624 1280 768 C1280.7736792 766.66582031 1280.7736792 766.66582031 1281.56298828 765.3046875 C1304.81868996 725.01181713 1321.6751428 682.57804618 1332.625 637.375 C1332.81932617 636.57658691 1333.01365234 635.77817383 1333.21386719 634.95556641 C1336.39052816 621.523522 1338.5619802 608.01590532 1340.125 594.3125 C1340.25340271 593.19775299 1340.25340271 593.19775299 1340.38439941 592.06048584 C1341.75875842 580.04046663 1342.83223065 568.10253365 1343 556 C1343.02046387 554.74123047 1343.04092773 553.48246094 1343.06201172 552.18554688 C1343.58399101 516.8842328 1341.56622527 482.72583636 1335 448 C1334.78972168 446.88705566 1334.57944336 445.77411133 1334.36279297 444.62744141 C1333.08326521 438.03984768 1331.60020187 431.51651103 1330 425 C1329.74057617 423.92459961 1329.48115234 422.84919922 1329.21386719 421.74121094 C1321.57971218 390.47375484 1311.24976121 360.11137471 1297.43554688 331.03271484 C1296.14223742 328.30048864 1294.8834594 325.55623344 1293.640625 322.80078125 C1287.86324003 310.10041686 1280.99609917 298.06148511 1274 286 C1273.09864065 284.42986983 1272.19757735 282.85956965 1271.296875 281.2890625 C1265.89986904 271.93501904 1260.14192656 262.8819461 1254 254 C1253.60876953 253.43249023 1253.21753906 252.86498047 1252.81445312 252.28027344 C1245.60998172 241.88114042 1237.85372611 231.91379064 1230 222 C1229.43845215 221.2898877 1228.8769043 220.57977539 1228.29833984 219.84814453 C1221.77640933 211.62817392 1215.06021123 203.68906005 1207.8515625 196.0625 C1205.73919067 193.82354132 1203.71512793 191.52423607 1201.70703125 189.19140625 C1197.68810985 184.57436574 1193.40030838 180.25334479 1189.0625 175.9375 C1188.30259766 175.17373047 1187.54269531 174.40996094 1186.75976562 173.62304688 C1182.56276398 169.43321346 1178.27911335 165.41225926 1173.78442383 161.54370117 C1171.40423124 159.48460174 1169.1132547 157.3346272 1166.8125 155.1875 C1161.32447966 150.18393938 1155.55718018 145.68784354 1149.62646484 141.23242188 C1147.03801017 139.27107105 1144.49372718 137.25308711 1141.9375 135.25 C1127.60623545 124.18117312 1112.59962737 114.17856863 1097 105 C1096.21109375 104.52884766 1095.4221875 104.05769531 1094.609375 103.57226562 C1025.92424001 62.61273847 947.67452148 43.07771738 867.99688721 44.95574951 C866.16850663 44.99626594 864.33986246 45.0243967 862.51123047 45.05126953 Z " fill="#FEFEFE" transform="translate(0,0)"/>
<path d="M0 0 C84.92723261 -1.92336638 168.48731382 21.86355429 239.86035156 68.09863281 C240.55837891 68.54835449 241.25640625 68.99807617 241.97558594 69.46142578 C253.88057263 77.16002271 265.39119177 85.45771301 276.51269531 94.25097656 C278.32475309 95.67710523 280.15361415 97.08189988 281.98925781 98.47753906 C289.84676821 104.48484415 297.13643435 110.91099785 304.29003906 117.73925781 C306.71728347 120.05167062 309.19850406 122.27501173 311.73925781 124.46191406 C316.33586153 128.4539934 320.63034864 132.7217851 324.92285156 137.03613281 C325.68662109 137.79603516 326.45039062 138.5559375 327.23730469 139.33886719 C331.43871588 143.54746643 335.47288366 147.84273467 339.35229492 152.34985352 C341.22349607 154.51974405 343.1663751 156.61893388 345.11035156 158.72363281 C350.14246634 164.30732846 354.7372169 170.18467171 359.32861328 176.12988281 C360.91882301 178.17378642 362.52990058 180.1997579 364.14550781 182.22363281 C387.86140383 212.06945638 407.26067958 244.83456241 423.86035156 279.09863281 C424.21548828 279.8229248 424.570625 280.5472168 424.93652344 281.29345703 C444.44263093 321.12546942 457.90924477 364.50576835 465.86035156 408.09863281 C466.07820313 409.28054199 466.29605469 410.46245117 466.52050781 411.68017578 C477.61576578 473.18753085 475.59397044 538.46652991 460.86035156 599.09863281 C460.57272949 600.32356445 460.28510742 601.54849609 459.98876953 602.81054688 C457.71771418 612.34568236 454.89095435 621.63085806 451.76123047 630.91748047 C450.984466 633.22626498 450.2206949 635.53907117 449.45800781 637.85253906 C446.72115821 646.07796561 443.72683473 654.06582557 440.22167969 661.99902344 C439.04115926 664.68695159 437.94362606 667.38507998 436.88378906 670.12207031 C434.37375577 676.45519644 431.44190685 682.58923865 428.48535156 688.72363281 C428.18210968 689.35358154 427.8788678 689.98353027 427.56643677 690.63256836 C421.33199823 703.52768677 414.31681435 715.86944122 406.86035156 728.09863281 C406.29396973 729.03739258 405.72758789 729.97615234 405.14404297 730.94335938 C398.47439313 741.99373474 391.56938276 752.74658901 383.86035156 763.09863281 C382.91742585 764.38102509 381.97472641 765.66358376 381.03222656 766.94628906 C370.72030694 780.90903369 359.9076574 794.23670587 347.95019531 806.82519531 C345.58086945 809.31989357 343.28528361 811.85898936 341.04785156 814.47363281 C335.49000582 820.91123805 329.38125682 826.78460644 322.92285156 832.30957031 C321.50480005 833.53962257 320.10987478 834.79668658 318.73535156 836.07519531 C263.04903185 887.8107964 199.55859308 902.04055736 125.47338867 899.54272461 C124.36616455 899.50058838 123.25894043 899.45845215 122.11816406 899.41503906 C121.15023926 899.37838135 120.18231445 899.34172363 119.18505859 899.30395508 C116.48975971 899.13750286 113.83302353 898.89534567 111.14916992 898.61010742 C105.76415858 898.05560316 100.38968084 897.80150901 94.98144531 897.59863281 C93.97050308 897.55802734 92.95956085 897.51742187 91.91798401 897.47558594 C88.71137724 897.34712465 85.50463589 897.22257586 82.29785156 897.09863281 C78.08813291 896.93401233 73.87850091 896.76737127 69.66894531 896.59863281 C68.13022011 896.53723366 68.13022011 896.53723366 66.56040955 896.47459412 C60.71800674 896.23535102 54.88338995 895.94044647 49.04785156 895.57128906 C39.84502178 894.99732589 30.64061707 894.7374632 21.42285156 894.53613281 C20.02297501 894.50536148 20.02297501 894.50536148 18.59481812 894.47396851 C-60.90433351 892.79398456 -140.03584281 895.87790584 -219.20091248 903.45880127 C-226.65223955 904.16400756 -234.10945588 904.71842439 -241.57714844 905.22363281 C-250.77225899 905.84609758 -259.93826084 906.59922026 -269.10888672 907.51147461 C-276.10821864 908.19942122 -283.111942 908.83826373 -290.11621094 909.47363281 C-291.18099135 909.57025868 -291.18099135 909.57025868 -292.26728249 909.66883659 C-346.97800047 914.62831765 -401.4107698 919.18403857 -456.38964844 919.34863281 C-457.59087341 919.35417175 -458.79209839 919.35971069 -460.02972412 919.36541748 C-512.09572202 919.54191846 -570.10353904 915.72445277 -609.13964844 877.09863281 C-609.85378906 876.44507813 -610.56792969 875.79152344 -611.30371094 875.11816406 C-624.30979709 862.96705967 -632.73329502 846.74909985 -638.45214844 830.09863281 C-638.79777832 829.10524902 -638.79777832 829.10524902 -639.15039062 828.09179688 C-643.37202822 815.04253528 -644.66556626 802.03862532 -644.51464844 788.41113281 C-644.5106604 787.6739502 -644.50667236 786.93676758 -644.50256348 786.17724609 C-644.42539298 773.95396637 -643.54943182 762.09611356 -641.13964844 750.09863281 C-640.9951123 749.34308105 -640.85057617 748.5875293 -640.70166016 747.80908203 C-636.1428929 724.26807236 -627.64369255 701.91397995 -619.3203125 679.50244141 C-616.78508864 672.66532194 -614.29815642 665.81578422 -611.95214844 658.91113281 C-611.61340698 657.93382202 -611.61340698 657.93382202 -611.26782227 656.93676758 C-610.50961092 654.67040793 -609.82326333 652.38864619 -609.13964844 650.09863281 C-608.62011597 648.48746582 -608.62011597 648.48746582 -608.09008789 646.84375 C-604.49790423 634.51173002 -604.56262008 622.49153678 -604.70214844 609.72363281 C-604.70796936 608.60456543 -604.71379028 607.48549805 -604.7197876 606.33251953 C-604.81482266 588.25330734 -605.72086238 570.40366323 -607.76367188 552.44335938 C-608.10334703 549.4215739 -608.4028329 546.40023744 -608.67871094 543.37207031 C-609.0869795 538.93626442 -609.57383894 534.51702043 -610.13964844 530.09863281 C-610.295625 528.86371094 -610.45160156 527.62878906 -610.61230469 526.35644531 C-613.17853921 510.00732208 -619.07216322 493.86802873 -625.63964844 478.72363281 C-632.66285798 462.37330372 -637.68541025 444.98556009 -641.07714844 427.53613281 C-641.26422363 426.57650635 -641.45129883 425.61687988 -641.64404297 424.62817383 C-644.60341896 408.16923539 -645.4946505 391.66560468 -645.38964844 374.97363281 C-645.38654663 374.08543854 -645.38344482 373.19724426 -645.38024902 372.28213501 C-645.15169435 316.12989282 -636.8572966 251.8693553 -608.17164516 202.43030167 C-605.27446752 197.22571962 -604.56400986 193.11320655 -604.62548828 187.2109375 C-604.61836319 186.36097702 -604.6112381 185.51101654 -604.60389709 184.63529968 C-604.58472027 181.84679445 -604.59287862 179.05905649 -604.60058594 176.27050781 C-604.59066704 174.31527615 -604.57872128 172.36005381 -604.56484985 170.40484619 C-604.532551 165.26711041 -604.52210308 160.12958755 -604.51800537 154.99176025 C-604.50923967 146.78435093 -604.4734148 138.57711625 -604.42583084 130.36985016 C-604.41336011 127.52064812 -604.41399421 124.67167221 -604.41610718 121.82244873 C-604.37438241 102.60058866 -602.01554497 87.062119 -588.63964844 72.34863281 C-587.81464844 71.60613281 -586.98964844 70.86363281 -586.13964844 70.09863281 C-585.66398437 69.63070312 -585.18832031 69.16277344 -584.69824219 68.68066406 C-574.6595874 59.27093704 -561.31461018 54.95295333 -547.75319195 54.98790073 C-546.50678297 54.98859328 -545.26037399 54.98928582 -543.97619504 54.98999935 C-542.60609323 54.99583155 -541.23599172 55.00173625 -539.8658905 55.00770569 C-538.40012459 55.01030141 -536.93435779 55.01242654 -535.46859056 55.0141229 C-532.28719214 55.01873806 -529.10582211 55.02648698 -525.92443657 55.03663445 C-520.7469833 55.05306126 -515.56953128 55.06243665 -510.39205933 55.07067871 C-504.81402699 55.07984416 -499.23599725 55.08943446 -493.65796983 55.10125649 C-479.81943977 55.13031541 -465.98096954 55.14180941 -452.14241028 55.14268494 C-450.639745 55.1428255 -450.639745 55.1428255 -449.10672285 55.1429689 C-440.85714448 55.14369075 -432.60756614 55.14369421 -424.35798775 55.14346881 C-416.92982042 55.14330762 -409.50165352 55.14381942 -402.07348633 55.14526367 C-400.48503227 55.14556066 -400.48503227 55.14556066 -398.86448822 55.14586364 C-381.72453934 55.15005757 -364.58479605 55.18659227 -347.44491955 55.23421986 C-329.82764665 55.28234212 -312.21063666 55.29224737 -294.59331399 55.26788038 C-283.73906681 55.25412643 -272.88571771 55.27024451 -262.03159801 55.32534855 C-254.58203618 55.3603764 -247.13304485 55.35837922 -239.68346538 55.3279636 C-235.3931084 55.31154117 -231.10436232 55.31085508 -226.8141613 55.35460472 C-202.53181858 55.70569233 -202.53181858 55.70569233 -181.00057089 45.34236228 C-177.6269704 43.08764912 -173.88306355 41.62898245 -170.13964844 40.09863281 C-169.28975342 39.73261963 -168.4398584 39.36660645 -167.56420898 38.98950195 C-166.55547729 38.56592407 -166.55547729 38.56592407 -165.52636719 38.13378906 C-164.76026123 37.81152344 -163.99415527 37.48925781 -163.20483398 37.15722656 C-162.42019775 36.82851562 -161.63556152 36.49980469 -160.82714844 36.16113281 C-159.99030518 35.81050781 -159.15346191 35.45988281 -158.29125977 35.09863281 C-156.63792679 34.4059232 -154.98452771 33.71337134 -153.33105469 33.02099609 C-151.55504082 32.27347154 -149.78404626 31.51402937 -148.01464844 30.75097656 C-123.36598378 20.18214506 -97.45700539 12.24809862 -71.13964844 7.09863281 C-70.48657715 6.96650391 -69.83350586 6.834375 -69.16064453 6.69824219 C-46.31521746 2.11900576 -23.24272153 0.55902074 0 0 Z M-589.62011719 74.85253906 C-596.39999608 83.06058088 -601.25961648 93.63309822 -601.2684496 104.31606632 C-601.2717218 105.35485506 -601.27499399 106.39364379 -601.27836534 107.46391097 C-601.27688172 108.6008701 -601.2753981 109.73782924 -601.27386951 110.90924168 C-601.27622174 112.12535642 -601.27857397 113.34147116 -601.28099748 114.59443787 C-601.28652244 117.98192132 -601.28755908 121.36935301 -601.28672008 124.75683737 C-601.28688957 128.43778238 -601.29279562 132.1187189 -601.29796094 135.79965967 C-601.30729031 143.105752 -601.31120955 150.41183826 -601.3134799 157.7179358 C-601.31644108 166.46706248 -601.32513798 175.21618111 -601.33389418 183.96530356 C-601.35474266 205.11308582 -601.36520887 226.26086948 -601.37402379 247.40865962 C-601.37822957 257.41156579 -601.38345164 267.41447136 -601.38870832 277.41737702 C-601.40659852 311.65339015 -601.42159504 345.88940346 -601.42902851 380.12542057 C-601.42950327 382.27493384 -601.42997916 384.42444712 -601.43045617 386.57396039 C-601.43069255 387.63993253 -601.43092893 388.70590467 -601.43117246 389.80417899 C-601.43237367 395.20498326 -601.43358912 400.60578753 -601.43481445 406.0065918 C-601.4350546 407.07840015 -601.43529475 408.15020851 -601.43554218 409.25449591 C-601.44343622 444.01002063 -601.46687021 478.76551123 -601.4993704 513.52102105 C-601.53366276 550.26009119 -601.55337908 586.99914137 -601.55667275 623.73822778 C-601.5570903 627.77079706 -601.55756986 631.80336633 -601.55809593 635.83593559 C-601.55821912 636.82887921 -601.55834232 637.82182283 -601.55846924 638.84485565 C-601.56080195 654.82884985 -601.57646585 670.81280446 -601.59693778 686.79678455 C-601.61718652 702.86128949 -601.62267757 718.92574682 -601.61316714 734.99026216 C-601.60794856 744.53483492 -601.61384655 754.07924928 -601.63570182 763.62379927 C-601.64920141 770.00107842 -601.64814034 776.37824842 -601.63529986 782.75552863 C-601.62839765 786.38809888 -601.62775236 790.02036611 -601.64485995 793.65290941 C-601.66316222 797.57112646 -601.65033738 801.48890008 -601.63463306 805.40713596 C-601.64485527 806.52770693 -601.65507748 807.64827791 -601.66560945 808.80280557 C-601.53171628 824.10048497 -594.96869684 837.43052569 -584.13964844 848.09863281 C-573.93879297 857.29856927 -561.30621299 860.41774463 -547.8652153 860.35031509 C-546.85162062 860.35322198 -545.83802593 860.35612886 -544.79371625 860.35912383 C-541.39372805 860.36642872 -537.99392003 860.35947802 -534.59393311 860.3526001 C-532.13307422 860.35490434 -529.67221602 860.35808062 -527.21135926 860.36205459 C-521.85901526 860.36866982 -516.50672448 860.36906221 -511.15438271 860.36396027 C-503.19504201 860.35639394 -495.23573536 860.36026356 -487.27639489 860.36637688 C-473.05972647 860.37690972 -458.84307602 860.37599489 -444.62640588 860.37021906 C-432.18268022 860.36518836 -419.73896115 860.36387434 -407.29523468 860.36626434 C-406.05719826 860.3664935 -406.05719826 860.3664935 -404.794151 860.36672728 C-401.44372885 860.36734996 -398.0933067 860.36798676 -394.74288456 860.36864681 C-363.30748561 860.37476591 -331.87209811 860.36921655 -300.43670093 860.35845302 C-272.51492339 860.34896522 -244.5931641 860.34980798 -216.67138672 860.359375 C-185.29959561 860.37008819 -153.92781462 860.37432842 -122.55602193 860.36815047 C-119.21045637 860.36750905 -115.86489082 860.36688336 -112.51932526 860.36626434 C-111.6955655 860.36610619 -110.87180574 860.36594803 -110.02308357 860.36578509 C-97.59067059 860.36351142 -85.15826493 860.3661684 -72.72585297 860.37122345 C-58.58462553 860.37694465 -44.44341888 860.37550674 -30.30219403 860.36466196 C-22.39066285 860.35879458 -14.47917668 860.3583985 -6.56764668 860.36595431 C-0.6572876 860.37097563 5.25303186 860.36551891 11.16338643 860.35600516 C13.55230795 860.35377246 15.9412355 860.3549045 18.33015314 860.35975674 C37.99268692 860.396628 54.88306943 860.40601129 70.08691406 846.03613281 C76.02206556 839.55191444 80.22065854 832.48059645 82.86035156 824.09863281 C83.20239058 823.02324501 83.54442959 821.94785721 83.89683342 820.8398819 C85.44486445 814.52927619 85.12928876 808.07703356 85.1008606 801.62145996 C85.10173351 800.14612584 85.10348608 798.67079202 85.10603893 797.19545984 C85.11049956 793.15453437 85.10252648 789.11371541 85.09248281 785.0728035 C85.08383206 780.7102586 85.08676962 776.34771952 85.08828735 771.98516846 C85.08933518 764.43111248 85.0830693 756.8770911 85.07181168 749.32304382 C85.05554574 738.40121385 85.05034755 727.47940057 85.04783569 716.55755979 C85.04346031 698.83686632 85.03015545 681.11619128 85.01123047 663.39550781 C84.99286762 646.18326917 84.97871309 628.97103553 84.97021484 611.75878906 C84.9696894 610.69752042 84.96916395 609.63625179 84.96862258 608.54282349 C84.96601247 603.21865923 84.96348506 597.89449494 84.96099877 592.57033062 C84.94027115 548.41308525 84.90504987 504.25585998 84.86035156 460.09863281 C85.882845 459.62490738 86.90533844 459.15118195 87.95881653 458.6631012 C89.31770837 458.03173283 90.67656795 457.40029502 92.03540039 456.76879883 C92.70726631 456.45774452 93.37913223 456.14669022 94.07135773 455.82621002 C97.78593689 454.09811488 101.44704404 452.31164662 105.05957031 450.37597656 C119.41221973 442.79344479 119.41221973 442.79344479 127.90722656 445.13769531 C128.88175781 445.45480469 129.85628906 445.77191406 130.86035156 446.09863281 C166.75759371 455.28763977 205.88797947 447.86907187 237.86035156 430.09863281 C239.43623047 429.25365234 239.43623047 429.25365234 241.04394531 428.39160156 C257.90465701 419.02941184 273.40657247 405.61067536 284.86035156 390.09863281 C285.25287109 389.56995605 285.64539062 389.0412793 286.04980469 388.49658203 C309.25075208 356.81129453 318.26359958 318.40108232 312.3371582 279.68481445 C307.75219633 253.27292176 295.32714827 229.25262902 277.86035156 209.09863281 C277.16425781 208.26847656 276.46816406 207.43832031 275.75097656 206.58300781 C251.84311949 178.83593281 215.92623206 162.00183613 179.86035156 158.09863281 C174.98107563 157.81981705 170.12185406 157.76382584 165.23535156 157.78613281 C163.92646973 157.79177246 162.61758789 157.79741211 161.26904297 157.80322266 C138.51869475 158.08574881 117.23070686 162.85350113 96.86035156 173.09863281 C92.86035156 175.09863281 88.86035156 177.09863281 84.86035156 179.09863281 C84.86923401 178.12303406 84.87811646 177.1474353 84.88726807 176.14227295 C84.96869831 166.90433851 85.02848118 157.66647782 85.06760025 148.42826462 C85.08838858 143.67988767 85.1165443 138.93180271 85.16210938 134.18359375 C85.20588193 129.59294046 85.22955433 125.00256631 85.23986053 120.41172028 C85.24719597 118.66879132 85.26151886 116.92587596 85.28327179 115.18306732 C85.48705288 98.16454702 82.19555921 84.53999507 70.11035156 71.84863281 C54.2025374 56.76811953 36.28012237 56.50624147 15.51081848 56.59742737 C13.04804069 56.59353021 10.58526514 56.58788645 8.12249488 56.58065647 C2.78759317 56.56900835 -2.54709127 56.56966543 -7.88197708 56.58143616 C-15.8152107 56.59889148 -23.74831451 56.59329263 -31.68155505 56.58326925 C-45.85303518 56.56611324 -60.02443774 56.57159497 -74.19591624 56.58662643 C-86.59595785 56.59969381 -98.99597259 56.60487116 -111.39602089 56.60230827 C-112.63125602 56.60206765 -112.63125602 56.60206765 -113.8914454 56.60182217 C-117.23448139 56.60115855 -120.57751738 56.60045613 -123.92055335 56.59969683 C-155.25802054 56.59267824 -186.59544043 56.6081465 -217.93289558 56.63432028 C-245.76183781 56.65744052 -273.59072807 56.66282055 -301.41967773 56.65258789 C-308.54811952 56.64998578 -315.67656131 56.64740074 -322.80500317 56.64498997 C-323.682657 56.64469252 -324.56031084 56.64439507 -325.46456025 56.64408861 C-348.73537563 56.63647125 -372.00618676 56.64288796 -395.27700025 56.65368599 C-397.78133122 56.65483376 -400.2856622 56.65597694 -402.78999318 56.65711281 C-404.45121747 56.65786806 -406.11244175 56.6586337 -407.77366602 56.65940982 C-420.16664738 56.66506384 -432.55961527 56.66374115 -444.95259666 56.65918159 C-459.04426053 56.65407067 -473.1358741 56.65994082 -487.22752544 56.68007589 C-495.11022584 56.69105 -502.99282733 56.69386675 -510.87553072 56.68478736 C-516.76414466 56.67894318 -522.65266459 56.68881805 -528.54126207 56.70478701 C-530.92122367 56.70882972 -533.30120033 56.70783463 -535.6811563 56.70126814 C-556.84288828 56.64788198 -574.17087697 58.54375108 -589.62011719 74.85253906 Z " fill="#E7E9FC" transform="translate(870.1396484375,44.9013671875)"/>
<path d="M0 0 C27.57008292 24.42264209 45.86131008 60.11794345 48.46484375 96.96875 C50.29400944 131.98375305 41.13462024 167.51771156 18.46484375 194.96875 C18.0255957 195.51047852 17.58634766 196.05220703 17.13378906 196.61035156 C-1.24766515 219.19825907 -24.22912028 235.10079689 -51.53515625 244.96875 C-52.76492188 245.4225 -53.9946875 245.87625 -55.26171875 246.34375 C-82.59075823 255.94337401 -113.26384859 255.48236904 -141.01928711 248.31420898 C-146.30733261 247.58809696 -150.47323261 249.19044018 -155.1484375 251.5234375 C-156.22005127 252.05114746 -157.29166504 252.57885742 -158.39575195 253.12255859 C-159.53488037 253.69055176 -160.67400879 254.25854492 -161.84765625 254.84375 C-164.26294527 256.02379638 -166.67917903 257.20153815 -169.09765625 258.375 C-169.71171829 258.67336761 -170.32578033 258.97173523 -170.95845032 259.27914429 C-177.38016736 262.39213432 -183.84309295 265.40751776 -190.34765625 268.34375 C-191.3838208 268.82569824 -192.41998535 269.30764648 -193.48754883 269.80419922 C-200.59251201 272.97493127 -200.59251201 272.97493127 -205.109375 272.9453125 C-207.53515625 271.96875 -207.53515625 271.96875 -209.53515625 268.96875 C-209.83983703 261.25482886 -207.38768296 253.33679252 -205.59765625 245.90625 C-205.06744426 243.66542705 -204.53749136 241.42454278 -204.0078125 239.18359375 C-203.31244351 236.2428832 -202.61696587 233.30269622 -201.89794922 230.36767578 C-200.36472333 224.22141935 -200.36472333 224.22141935 -200.53515625 217.96875 C-202.31964837 215.92760504 -203.89815863 214.40161581 -205.97265625 212.71875 C-207.08514885 211.75619565 -208.19449336 210.7899917 -209.30078125 209.8203125 C-209.85185547 209.34110352 -210.40292969 208.86189453 -210.97070312 208.36816406 C-234.8360195 187.0204747 -250.32596781 151.64415611 -252.53515625 119.96875 C-254.43491354 77.39651453 -239.67723583 39.61292392 -211.34765625 8.03125 C-155.93365557 -52.19800969 -60.24638729 -52.10498361 0 0 Z " fill="#3E3DD2" transform="translate(1135.53515625,241.03125)"/>
<path d="M0 0 C0.75290895 0.00119778 1.5058179 0.00239555 2.28154227 0.00362962 C3.07781092 0.0009778 3.87407956 -0.00167403 4.69447756 -0.00440621 C7.39722343 -0.01214446 10.09992422 -0.0126601 12.80268046 -0.01325613 C14.74617403 -0.01726779 16.68966677 -0.02170551 18.63315848 -0.02653569 C24.00085767 -0.0385403 29.36854787 -0.04415861 34.73625788 -0.04871684 C40.51487452 -0.05465829 46.2934803 -0.06627178 52.07208964 -0.07700735 C66.04141582 -0.10156533 80.01074561 -0.11616372 93.98008674 -0.12906742 C97.92300267 -0.13277695 101.86591824 -0.13675038 105.80883381 -0.14082009 C130.27208185 -0.16605476 154.73532977 -0.18813317 179.19858786 -0.20054823 C184.86901235 -0.20346969 190.53943681 -0.20643718 196.20986125 -0.20945364 C196.91435956 -0.20982455 197.61885787 -0.21019546 198.34470461 -0.21057761 C221.18897467 -0.22273457 244.03316771 -0.25367956 266.87740159 -0.29537517 C291.01708288 -0.33935503 315.15671821 -0.36507985 339.29643992 -0.3704688 C352.46020122 -0.37388784 365.62384105 -0.38570099 378.78756472 -0.41857153 C389.99658182 -0.44651444 401.20545255 -0.45759674 412.41450178 -0.44637607 C418.13674694 -0.44117461 423.85868534 -0.44417263 429.58088633 -0.46884161 C434.81618028 -0.4912237 440.05094515 -0.49068041 445.28624768 -0.47163774 C447.18335823 -0.46882217 449.08050381 -0.47452195 450.97755771 -0.48945068 C453.55134217 -0.50847146 456.12322339 -0.49682697 458.6969628 -0.47738844 C459.80876748 -0.49666227 459.80876748 -0.49666227 460.94303286 -0.51632547 C466.63499454 -0.42149231 468.96069681 1.23321105 472.80385539 5.14064401 C474.19997695 8.17989326 474.34338967 10.84723687 473.80385539 14.14064401 C471.55651599 18.11784335 469.15628126 20.68983539 464.80385539 22.14064401 C462.22973768 22.23872115 459.68275063 22.27999338 457.10851428 22.27486509 C456.3130151 22.27721732 455.51751591 22.27956955 454.6979107 22.28199306 C452.00983358 22.28869463 449.32180467 22.28822449 446.63371989 22.28781503 C444.69603727 22.29111292 442.75835533 22.29483833 440.82067427 22.29895651 C435.47836466 22.30899287 430.13606629 22.31269592 424.79374859 22.31534582 C419.03904583 22.31924394 413.28435201 22.32882248 407.52965495 22.33755869 C393.62494216 22.35733519 379.72022863 22.36738999 365.8155053 22.37628648 C359.2731274 22.3806667 352.73075031 22.38603413 346.18837306 22.39127535 C324.45070053 22.40828743 302.71302894 22.42280823 280.97535083 22.43002409 C279.56937697 22.43049885 278.16340312 22.43097474 276.75742926 22.43145175 C276.06018355 22.43168813 275.36293783 22.4319245 274.64456346 22.43216804 C271.11188602 22.43336926 267.5792086 22.4345847 264.04653117 22.43581003 C263.34545756 22.43605018 262.64438395 22.43629033 261.92206568 22.43653776 C239.18118834 22.44443426 216.4403631 22.46787382 193.69950851 22.50036597 C169.66559533 22.53464309 145.63171398 22.55437203 121.59777579 22.55766833 C108.49278196 22.55983711 95.38786472 22.56863959 82.28289363 22.5941295 C71.12624383 22.61577934 59.96968923 22.62391512 48.81302081 22.61416272 C43.11725665 22.60960164 37.42168914 22.6116089 31.72595164 22.63092417 C26.51613953 22.64843964 21.30666921 22.64765325 16.09685405 22.63202687 C14.20789948 22.62963306 12.31892196 22.63406524 10.43000267 22.64585552 C7.8698739 22.66085095 5.31097569 22.65138855 2.75087878 22.63562864 C2.01082903 22.64585085 1.27077929 22.65607305 0.50830379 22.66660503 C-4.33635648 22.60113802 -6.7954495 21.58096768 -10.19614461 18.14064401 C-12.03162733 15.05369581 -12.19821462 13.25656457 -12.13364461 9.64064401 C-11.02318484 5.49492754 -9.4255256 3.88561786 -6.19614461 1.14064401 C-4.47863178 -0.57686881 -2.29099555 0.01193533 0 0 Z " fill="#949CB0" transform="translate(371.1961446106434,309.8593559861183)"/>
<path d="M0 0 C1.03883249 -0.00843994 2.07766497 -0.01687988 3.14797723 -0.02557558 C4.28784479 -0.01956553 5.42771235 -0.01355549 6.60212135 -0.00736332 C7.81412071 -0.01274886 9.02612006 -0.01813439 10.27484667 -0.02368313 C13.64066407 -0.03553082 17.00598751 -0.03388367 20.37178564 -0.02651632 C24.00106274 -0.02179445 27.63028625 -0.03428583 31.25954628 -0.04453373 C38.37045363 -0.06174693 45.48127272 -0.06255646 52.5921955 -0.05732083 C58.37152057 -0.05328225 64.15081953 -0.05471896 69.93014336 -0.06006908 C70.75215135 -0.06081751 71.57415934 -0.06156593 72.42107666 -0.06233703 C74.09090515 -0.06386848 75.76073362 -0.06540683 77.43056209 -0.066952 C93.09719066 -0.08068638 108.76376932 -0.07523297 124.43039675 -0.06376678 C138.76566114 -0.05383537 153.10079645 -0.06677179 167.43604092 -0.09070098 C182.15123146 -0.11507951 196.86636184 -0.1247028 211.58157218 -0.11804825 C219.84471999 -0.114553 228.10776854 -0.11680811 236.37090111 -0.13429928 C243.40588559 -0.14900579 250.4407009 -0.14967721 257.47568201 -0.13222837 C261.06533143 -0.12370271 264.65467846 -0.12160653 268.24431229 -0.13687992 C272.1351406 -0.15322991 276.02549993 -0.13860993 279.91633034 -0.12088871 C281.61943951 -0.13529622 281.61943951 -0.13529622 283.35695493 -0.14999479 C289.50918344 -0.09216243 293.22659563 0.21998865 297.88620949 4.38031673 C302.34846599 9.98408071 301.58405626 16.56650949 300.88620949 23.38031673 C299.72926764 27.33483549 297.92234219 29.66875077 294.48072338 32.03228855 C289.30184603 33.9744907 284.48733735 33.79385935 278.9989872 33.76126766 C277.79274053 33.76594763 276.58649387 33.77062761 275.34369427 33.7754494 C272.00325991 33.78533636 268.66333245 33.78179002 265.32292902 33.77249074 C261.71757055 33.76570001 258.1122562 33.77618154 254.50690651 33.7844305 C247.44740316 33.79776939 240.3879955 33.79488954 233.3284884 33.78619258 C227.59163315 33.77941759 221.85480473 33.77849851 216.11794662 33.78176403 C215.30147161 33.78222373 214.4849966 33.78268343 213.64377992 33.78315706 C211.98514277 33.78411623 210.32650563 33.78508887 208.6678685 33.78607483 C193.11571215 33.79462904 177.56360886 33.78479383 162.01146121 33.76867373 C148.66475243 33.755268 135.31812193 33.75760068 121.97141457 33.77143002 C106.47338051 33.78748095 90.97539293 33.79380772 75.47735173 33.78459322 C73.82512002 33.78363757 72.17288831 33.78269446 70.52065659 33.78176403 C69.70771754 33.7813012 68.8947785 33.78083838 68.05720494 33.78036153 C62.32621377 33.77777036 56.59525206 33.7821453 50.86426544 33.78920269 C43.88165562 33.79761237 36.89914699 33.79534869 29.91654878 33.77936046 C26.35338715 33.77147091 22.7903943 33.7683977 19.22723389 33.77830791 C15.36687632 33.78888245 11.50679572 33.77626436 7.64644814 33.76126766 C6.51727531 33.76795983 5.38810249 33.77465199 4.22471231 33.78154695 C3.19085557 33.77372371 2.15699882 33.76590047 1.09181309 33.75784016 C0.20082415 33.7573531 -0.6901648 33.75686604 -1.6081534 33.75636423 C-5.82575022 33.12338481 -8.4634852 31.03062205 -11.42629051 28.06781673 C-14.60145411 22.90979586 -13.78435926 16.14720801 -13.11379051 10.38031673 C-10.99951277 3.86488941 -6.88523246 0.00789553 0 0 Z " fill="#959DB0" transform="translate(372.11379051208496,203.61968326568604)"/>
<path d="M0 0 C11.66647366 7.63493995 20.403463 19.43423398 23.95703125 33.00390625 C26.6976152 49.82356852 24.43010605 64.51858317 14.7421875 78.671875 C5.54001842 90.27460992 -6.60346368 98.3855825 -21.4453125 100.671875 C-38.45367785 101.92274559 -53.49855163 98.37517881 -66.8828125 87.234375 C-73.43315439 81.04182489 -77.84638347 73.89799849 -81.4453125 65.671875 C-81.97898437 64.47046875 -82.51265625 63.2690625 -83.0625 62.03125 C-84.89771311 57.03431886 -84.93965521 52.19824267 -84.8828125 46.921875 C-84.87596436 45.94903564 -84.86911621 44.97619629 -84.86206055 43.97387695 C-84.69799371 36.61667739 -83.67410265 30.35249673 -80.4453125 23.671875 C-80.0946875 22.89199219 -79.7440625 22.11210938 -79.3828125 21.30859375 C-73.09918184 8.67587794 -62.04075408 -0.58094853 -48.96484375 -5.50390625 C-47.71767578 -5.91189453 -47.71767578 -5.91189453 -46.4453125 -6.328125 C-45.36894531 -6.68519531 -44.29257812 -7.04226563 -43.18359375 -7.41015625 C-28.219924 -11.08462061 -13.12025738 -7.68200577 0 0 Z " fill="#FD4F45" transform="translate(839.4453125,501.328125)"/>
<path d="M0 0 C12.92075409 8.35581793 21.6744124 21.43447512 25.10546875 36.39453125 C25.36499797 39.17275908 25.39202998 41.91829157 25.35546875 44.70703125 C25.34870117 45.4546875 25.34193359 46.20234375 25.33496094 46.97265625 C25.06223835 61.61088272 19.93476687 74.66185258 10.07421875 85.66015625 C-0.81776582 95.99964885 -14.92453549 100.99616511 -29.76953125 100.83203125 C-30.73407227 100.82445801 -31.69861328 100.81688477 -32.69238281 100.80908203 C-46.33707695 100.49406297 -58.08327358 95.30143085 -68.23828125 86.15234375 C-73.60485296 80.45668981 -77.88193295 73.60524108 -80.89453125 66.39453125 C-81.19359375 65.71777344 -81.49265625 65.04101562 -81.80078125 64.34375 C-86.42895515 51.93767275 -85.17107602 36.31734334 -79.89453125 24.39453125 C-73.01635979 10.22027411 -62.83085675 0.53276257 -47.95703125 -4.98046875 C-31.33878581 -10.60962405 -15.1792337 -8.41925108 0 0 Z " fill="#FC4F45" transform="translate(838.89453125,680.60546875)"/>
<path d="M0 0 C1.31327345 -0.00724325 2.62654691 -0.01448649 3.97961652 -0.02194923 C7.61441073 -0.04114474 11.24819866 -0.02302332 14.88292646 0.00134361 C18.8066214 0.02111153 22.73020607 0.00622136 26.65391541 -0.00430298 C34.33570444 -0.01941565 42.01710553 -0.002522 49.69884636 0.02524792 C58.64345363 0.05641971 67.58797732 0.05618886 76.5326287 0.05473018 C92.49012657 0.05322879 108.44744396 0.08070154 124.40487671 0.12428284 C139.89221484 0.1665584 155.37939415 0.18779451 170.86679077 0.18580627 C171.82095027 0.18568641 172.77510977 0.18556654 173.7581832 0.18544304 C175.18693994 0.18526144 175.18693994 0.18526144 176.64456046 0.18507618 C194.27425611 0.18300711 211.90388424 0.20067229 229.53355802 0.22753583 C235.77000018 0.23658738 242.00642995 0.23977479 248.24287796 0.24113274 C255.84032305 0.24317835 263.43765433 0.25656144 271.03505112 0.28413116 C274.91211907 0.29798909 278.78904139 0.30712023 282.66613579 0.30334854 C286.86588379 0.29946103 291.06519938 0.31878947 295.26489258 0.34057617 C296.49454794 0.33593037 297.72420329 0.33128456 298.99112093 0.32649797 C300.11492926 0.33617131 301.2387376 0.34584465 302.39660072 0.35581112 C303.36602942 0.35792439 304.33545812 0.36003767 305.33426344 0.36221498 C309.6624937 0.97713026 312.27847573 3.01472756 315.31796265 6.05421448 C317.39370996 9.36003427 317.63267047 10.90006654 317.00546265 14.74171448 C314.65986636 19.17228524 312.46522096 21.51988625 308.00546265 23.74171448 C305.33837414 24.11776197 305.33837414 24.11776197 302.40663147 24.1192379 C301.28507314 24.12706114 300.1635148 24.13488438 299.00796986 24.14294469 C297.78084121 24.13625253 296.55371256 24.12956036 295.28939819 24.12266541 C293.98191714 24.12734538 292.67443609 24.13202535 291.3273344 24.13684714 C287.69970207 24.14937903 284.07230628 24.14317691 280.44467306 24.13388848 C276.53186529 24.12710726 272.61909849 24.13757461 268.70629883 24.14582825 C261.04173201 24.15917769 253.37725325 24.15628246 245.71268296 24.14759032 C239.48429023 24.14081895 233.25592221 24.13989469 227.02752686 24.14316177 C226.14153232 24.14362147 225.25553779 24.14408117 224.34269494 24.1445548 C222.54289126 24.14551396 220.74308758 24.1464866 218.94328392 24.14747258 C202.06107903 24.15603002 185.17892299 24.14618678 168.29672611 24.13007148 C153.80671018 24.11666797 139.31676634 24.11899597 124.82675171 24.13282776 C108.00552209 24.14887732 91.1843353 24.15520601 74.3630991 24.14599097 C72.56986555 24.14503531 70.776632 24.14409219 68.98339844 24.14316177 C68.10106165 24.14269895 67.21872486 24.14223612 66.3096506 24.14175927 C60.0877506 24.13916751 53.86587773 24.14354439 47.64398193 24.15060043 C40.06297677 24.1590087 32.48206482 24.1567495 24.90107036 24.1407582 C21.03210491 24.13286638 17.16329494 24.12979931 13.2943306 24.13970566 C9.10326035 24.15027456 4.9125837 24.13766679 0.7215271 24.12266541 C-0.50560155 24.12935757 -1.7327302 24.13604974 -2.99704456 24.14294469 C-4.1186029 24.13512145 -5.24016123 24.12729821 -6.39570618 24.1192379 C-7.8469188 24.11850731 -7.8469188 24.11850731 -9.32744884 24.11776197 C-13.57631255 23.51869129 -16.22809825 21.42747578 -19.36953735 18.61671448 C-21.35146163 15.11023306 -21.297245 13.044784 -21.0375061 9.12062073 C-17.00013282 -0.08821945 -8.93235457 -0.11249843 0 0 Z " fill="#979FB2" transform="translate(379.9945373535156,694.2582855224609)"/>
<path d="M0 0 C1.68382797 -0.00576172 1.68382797 -0.00576172 3.40167266 -0.01163983 C4.64532173 -0.01077335 5.8889708 -0.00990687 7.17030621 -0.00901413 C8.48339109 -0.01198525 9.79647597 -0.01495637 11.1493513 -0.01801753 C14.80649019 -0.02610656 18.46360949 -0.02787816 22.12075627 -0.028615 C26.0601909 -0.03046226 29.99961527 -0.03800793 33.939044 -0.04475021 C42.55881969 -0.05834761 51.17859074 -0.06436046 59.79837537 -0.06876087 C65.17783313 -0.07152095 70.5572891 -0.07575787 75.93674564 -0.08026505 C90.82284241 -0.0924596 105.70893772 -0.10275851 120.59503937 -0.10614014 C121.54828214 -0.1063597 122.50152491 -0.10657927 123.48365382 -0.10680549 C124.43921358 -0.10702377 125.39477334 -0.10724204 126.37928945 -0.10746694 C128.31570645 -0.10791041 130.25212346 -0.10835697 132.18854046 -0.10880661 C133.62934356 -0.10913875 133.62934356 -0.10913875 135.0992538 -0.10947761 C150.66716614 -0.11342653 166.23503171 -0.13088258 181.80292598 -0.15416613 C197.7757406 -0.177863 213.74853172 -0.19034123 229.7213642 -0.19150805 C238.69375892 -0.19242576 247.66609269 -0.19820202 256.63847065 -0.21632767 C264.2780928 -0.23170622 271.91763517 -0.23686244 279.55726985 -0.22858956 C283.45660138 -0.22467505 287.35577215 -0.2256515 291.25508404 -0.23964691 C295.47913896 -0.25466952 299.70282951 -0.24654311 303.926898 -0.23606491 C305.16385491 -0.24412132 306.40081181 -0.25217772 307.67525226 -0.26047826 C309.37081509 -0.25059349 309.37081509 -0.25059349 311.10063171 -0.24050903 C312.07580854 -0.24110612 313.05098536 -0.24170321 314.055713 -0.24231839 C317.27590336 0.20619829 319.12721797 1.21872728 321.73907757 3.13142776 C324.5563299 7.35730626 324.5386614 11.16767465 323.73907757 16.13142776 C321.54884839 18.95567065 319.9089055 20.5465138 316.73907757 22.13142776 C314.98240668 22.23009213 313.22197224 22.26424813 311.46253777 22.26844215 C310.33650239 22.2735167 309.21046702 22.27859124 308.05030936 22.28381956 C306.17899933 22.28456619 306.17899933 22.28456619 304.26988506 22.28532791 C302.29413241 22.29190129 302.29413241 22.29190129 300.27846557 22.29860747 C296.60992987 22.31059276 292.94140733 22.31622592 289.27285588 22.32078862 C285.32114777 22.32673724 281.36945546 22.33834885 277.41775799 22.34907913 C267.86862194 22.3736189 258.31948065 22.38823196 248.77032277 22.4011392 C246.07454748 22.40484978 243.37877271 22.40882311 240.68299794 22.41289186 C223.95265862 22.4381254 207.2223185 22.46018461 190.49196434 22.47262001 C186.61543239 22.47554984 182.73890047 22.47851149 178.86236858 22.48152542 C177.89884257 22.48227147 176.93531655 22.48301752 175.94259278 22.48378618 C160.32614747 22.49644594 144.70981587 22.5296765 129.09342375 22.57132725 C113.07088968 22.61371199 97.04841389 22.63731098 81.02582389 22.64254057 C72.0254318 22.64595847 63.02521743 22.65775821 54.02488041 22.69064331 C46.3614364 22.71859741 38.69820654 22.72966363 31.0347155 22.71844785 C27.12312133 22.71324934 23.21197593 22.71622443 19.30044651 22.74091339 C15.72067645 22.76332023 12.14167973 22.76273407 8.5618969 22.74370952 C6.65091958 22.73956334 4.73993822 22.76011848 2.82907599 22.78149641 C-6.4174154 22.6952834 -6.4174154 22.6952834 -9.5015564 19.65592766 C-10.08214719 18.82284269 -10.66273798 17.98975773 -11.26092243 17.13142776 C-11.59092243 16.80142776 -11.92092243 16.47142776 -12.26092243 16.13142776 C-12.69931298 12.74955782 -12.74264456 9.50871879 -12.26092243 6.13142776 C-8.48961208 1.26842231 -5.96332685 0.0076263 0 0 Z " fill="#949CB0" transform="translate(372.2609224319458,512.8685722351074)"/>
<path d="M0 0 C1.0244002 -0.00445784 2.04880041 -0.00891569 3.10424304 -0.01350862 C4.80527364 -0.01323207 4.80527364 -0.01323207 6.54066849 -0.01294994 C7.73870834 -0.01662663 8.93674819 -0.02030332 10.17109227 -0.02409142 C13.50706638 -0.03323032 16.84299124 -0.03783059 20.1789732 -0.04048073 C23.77282288 -0.04437941 27.36665825 -0.05395806 30.96049881 -0.0626936 C39.64497118 -0.08247059 48.32944475 -0.09252587 57.01393402 -0.10142139 C61.10155366 -0.10580235 65.189172 -0.11116966 69.27679062 -0.11641026 C82.86154664 -0.13342392 96.44630185 -0.14791863 110.03106689 -0.155159 C113.5576439 -0.15706896 117.0842209 -0.15898928 120.61079788 -0.16094494 C121.9256017 -0.16167055 121.9256017 -0.16167055 123.26696721 -0.16241082 C137.4697856 -0.17071307 151.67251982 -0.19605264 165.87530145 -0.22852562 C180.45029539 -0.26157847 195.02524652 -0.27960616 209.60027814 -0.28280324 C217.78634054 -0.28497001 225.9722802 -0.29374293 234.15830612 -0.31926441 C241.1292763 -0.34094724 248.10009394 -0.34903382 255.07109401 -0.33929763 C258.62833855 -0.33474581 262.18526822 -0.33668977 265.74246979 -0.35605907 C269.59834852 -0.3768735 273.45379103 -0.36672818 277.30971146 -0.35352612 C278.99735772 -0.36997998 278.99735772 -0.36997998 280.71909785 -0.38676625 C286.85173806 -0.33591397 290.52038455 0.00940602 295.17915726 4.13422108 C297.46372092 6.91542901 297.17135373 8.38003232 297.05415726 12.07172108 C296.44554766 16.00201922 295.02159991 18.29177843 292.17915726 21.13422108 C289.71009542 22.36875199 288.08675082 22.262926 285.32428646 22.26844215 C283.77631092 22.27512892 283.77631092 22.27512892 282.19706315 22.28195077 C280.48333653 22.28167423 280.48333653 22.28167423 278.73498917 22.2813921 C277.52807665 22.28506879 276.32116413 22.28874547 275.0776785 22.29253358 C271.71697073 22.30167257 268.35631185 22.30627276 264.99559629 22.30892289 C261.37518068 22.31282148 257.75477927 22.32240008 254.13437271 22.33113575 C245.3861305 22.35091217 236.63788712 22.3609676 227.88962814 22.36986354 C223.77249178 22.37424428 219.6553567 22.37961162 215.53822136 22.38485241 C201.85652782 22.40186543 188.17483509 22.41636057 174.49313259 22.42360115 C170.94145265 22.42551112 167.38977272 22.42743144 163.8380928 22.42938709 C162.95531339 22.42987083 162.07253397 22.43035457 161.16300366 22.43085297 C146.85604559 22.43915689 132.54917104 22.46449955 118.24224945 22.49696777 C103.5621692 22.53001195 88.88213144 22.54804749 74.20201379 22.55124539 C65.95617993 22.55341288 57.71046786 22.56219639 49.46467018 22.58770657 C42.44353273 22.60937751 35.42254665 22.61748183 28.40137955 22.60773978 C24.81793135 22.6031846 21.23479572 22.60515134 17.65139008 22.62450123 C13.76888783 22.6452855 9.88681983 22.63518126 6.00427628 22.62196827 C4.86848403 22.63293752 3.73269178 22.64390676 2.56248158 22.65520841 C-5.05490048 22.5923468 -5.05490048 22.5923468 -8.97397518 20.24826813 C-12.08313239 16.68932066 -12.84302911 14.37665781 -12.75834274 9.63422108 C-11.64361237 5.47256101 -10.10110601 3.8544394 -6.82084274 1.13422108 C-4.35995203 -0.09622428 -2.75286801 0.00553791 0 0 Z " fill="#949BAF" transform="translate(371.8208427429199,380.86577892303467)"/>
<path d="M0 0 C1.38421143 0.01522705 1.38421143 0.01522705 2.79638672 0.03076172 C16.77118001 0.34764489 29.50528186 4.42957763 39.6875 14.375 C46.11123299 21.59342161 51.13393947 30.59543072 51.6875 40.375 C51.77 41.6125 51.8525 42.85 51.9375 44.125 C51.71846442 56.73171478 45.65146331 67.95275407 37.21875 76.93359375 C33.75578325 80.27364656 30.0333048 83.22634743 26.2734375 86.22265625 C19.48928144 91.86928765 14.47939173 97.80443891 13.3984375 106.7734375 C13.26406229 108.31128707 13.15926441 109.85221291 13.09375 111.39453125 C12.56721785 113.96137548 11.71803671 114.74563057 9.6875 116.375 C7.65039062 116.76318359 7.65039062 116.76318359 5.34375 116.7734375 C4.50972656 116.77730469 3.67570312 116.78117187 2.81640625 116.78515625 C1.94886719 116.77355469 1.08132813 116.76195312 0.1875 116.75 C-0.68003906 116.76160156 -1.54757812 116.77320313 -2.44140625 116.78515625 C-3.27542969 116.78128906 -4.10945313 116.77742188 -4.96875 116.7734375 C-6.11053711 116.76836182 -6.11053711 116.76836182 -7.27539062 116.76318359 C-9.8335713 116.27570669 -10.71027743 115.38763046 -12.3125 113.375 C-15.03546104 105.53857142 -13.16803369 96.89128982 -10.3125 89.375 C-5.33305564 79.18897873 4.30710744 70.8410245 13.1875 64.0625 C19.12678057 59.47695593 21.97740304 54.57938152 22.99609375 47.11328125 C23.31990758 41.01969371 22.22454736 37.16419389 18.5 32.29296875 C13.5367202 27.04087741 8.82127072 26.12651115 1.6875 25.875 C-5.28885561 26.11350788 -10.05966628 27.07750495 -15.01953125 32.10546875 C-18.43066724 36.26356883 -20.31080976 40.43569447 -21.76953125 45.58984375 C-22.3125 47.375 -22.3125 47.375 -23.3125 48.375 C-26.76288505 48.65387021 -30.22718039 48.60678779 -33.6875 48.625 C-34.65945313 48.645625 -35.63140625 48.66625 -36.6328125 48.6875 C-37.56609375 48.69265625 -38.499375 48.6978125 -39.4609375 48.703125 C-40.31864746 48.7124707 -41.17635742 48.72181641 -42.06005859 48.73144531 C-44.3125 48.375 -44.3125 48.375 -46.08837891 47.06542969 C-48.26950582 44.05343871 -47.79344561 40.87825152 -47.3125 37.375 C-44.51044688 24.14864214 -37.96551717 15.49861794 -27.3125 7.375 C-18.85207636 2.04866803 -9.91786651 -0.15817679 0 0 Z " fill="#F9F9FD" transform="translate(1032.3125,268.625)"/>
<path d="M0 0 C0.68184311 -0.00538554 1.36368623 -0.01077108 2.06619126 -0.01631981 C4.35014319 -0.03062343 6.6335175 -0.02349007 8.91749573 -0.01637268 C10.55527717 -0.02207502 12.19305463 -0.02903875 13.83082581 -0.03717041 C18.27918708 -0.05513225 22.72735143 -0.05392775 27.1757381 -0.04822803 C30.88856241 -0.04514048 34.60134866 -0.0512238 38.31416756 -0.05726677 C47.0727635 -0.07132038 55.83126192 -0.06974382 64.58985901 -0.05836487 C73.62742729 -0.04688298 82.66469884 -0.06095856 91.70222801 -0.08776134 C99.46030565 -0.10990868 107.21829008 -0.1165579 114.9763971 -0.11068493 C119.61052145 -0.1073118 124.2444556 -0.10975395 128.87855339 -0.12693596 C133.23627335 -0.14238763 137.59355333 -0.13846952 141.9512558 -0.11963081 C143.55042753 -0.11593995 145.14963172 -0.1190679 146.74877357 -0.1295166 C148.93247112 -0.14269523 151.11470535 -0.1312091 153.29833984 -0.11352539 C154.52005103 -0.11331611 155.74176222 -0.11310682 157.00049496 -0.1128912 C161.44903874 0.58035211 163.84972343 2.65303129 166.58766174 6.13768005 C167.57137894 9.67906197 167.29755742 12.92700018 166.21266174 16.38768005 C164.02008366 19.03001775 162.27926556 20.85437814 159.21266174 22.38768005 C157.06218736 22.49492553 154.90833047 22.53604037 152.75521851 22.54830933 C152.08466248 22.55339715 151.41410645 22.55848497 150.72323054 22.56372696 C148.46555932 22.57948272 146.20792019 22.58798474 143.95021057 22.59642029 C142.33567602 22.60595632 140.72114352 22.61584737 139.10661316 22.62606812 C133.7943312 22.65748525 128.48203343 22.67772499 123.16969299 22.6962738 C122.26616899 22.69957113 121.36264499 22.70286845 120.43174148 22.70626569 C111.91154151 22.73705034 103.39133805 22.76376045 94.87109852 22.78068447 C83.97022651 22.80259016 73.06984715 22.8445536 62.16917211 22.91412205 C54.50624352 22.96136701 46.84344781 22.98561878 39.18037814 22.99288136 C34.60300392 22.99783738 30.02618463 23.01291271 25.44896889 23.05262566 C21.1404206 23.08951391 16.83274362 23.09789487 12.52406693 23.08461952 C10.94505133 23.08467344 9.36599692 23.09495655 7.78712654 23.11637115 C-5.61851431 23.28843361 -5.61851431 23.28843361 -10.21136475 19.56286621 C-12.4260887 17.27222495 -12.8900511 16.06812898 -13.91233826 12.88768005 C-13.74313693 8.15004301 -12.51138615 5.06944251 -9.09826565 1.74003506 C-5.95347184 -0.10029868 -3.63588605 0.00723375 0 0 Z " fill="#979EB1" transform="translate(372.78733825683594,574.6123199462891)"/>
<path d="M0 0 C0.68013426 -0.00367669 1.36026853 -0.00735338 2.06101292 -0.01114148 C4.35100082 -0.02219686 6.64094337 -0.02602527 8.93095398 -0.02983093 C10.56843714 -0.03609416 12.20591888 -0.04274083 13.84339905 -0.04974365 C18.30008082 -0.06716577 22.75675185 -0.07770858 27.21345925 -0.08594918 C29.99651734 -0.09109648 32.77957207 -0.09717231 35.56262779 -0.10346031 C44.26631882 -0.12251526 52.97000133 -0.13674609 61.67370921 -0.14507228 C71.72791857 -0.15484864 81.781908 -0.18117724 91.83603984 -0.22157317 C99.60255031 -0.25170936 107.36899764 -0.26653875 115.13556546 -0.26985329 C119.77645343 -0.27220653 124.41710653 -0.28120232 129.0579319 -0.30631447 C133.42379541 -0.32955681 137.78926878 -0.33384401 142.15517807 -0.32355309 C143.75758726 -0.32305668 145.36001541 -0.32940781 146.9623661 -0.34310913 C149.15051035 -0.36077256 151.33724596 -0.35375099 153.52539062 -0.34057617 C154.74969945 -0.34296453 155.97400827 -0.34535288 157.23541737 -0.34781361 C161.06917493 0.24193048 162.71513716 1.45413619 165.45317078 4.14717102 C166.63852542 6.51788031 166.79289173 8.25256682 166.95317078 10.89717102 C167.02535828 11.73763977 167.09754578 12.57810852 167.17192078 13.44404602 C166.22052391 17.02212554 164.79789395 18.53134449 161.95684814 20.85478973 C156.40336282 23.72146121 149.73812648 22.97517505 143.62309265 22.92353821 C142.00780826 22.93167538 140.392535 22.94236239 138.77728271 22.95539856 C134.40312073 22.9826911 130.0298103 22.97217225 125.65563393 22.95312405 C121.07180664 22.93790222 116.48805082 22.95202997 111.90422058 22.96144104 C104.20735116 22.97234796 96.51082751 22.95799501 88.81401062 22.92939758 C79.92337125 22.89674538 71.0335575 22.90732303 62.14293814 22.94035602 C54.50106552 22.96760968 46.85944103 22.97141362 39.2175355 22.955724 C34.65710326 22.94638382 30.09705873 22.94508375 25.53665161 22.96494293 C21.24841221 22.98231349 16.96123414 22.97018545 12.67310905 22.93557739 C11.10220538 22.92766379 9.53121192 22.92988859 7.96034431 22.94315338 C-5.3725719 23.04533461 -5.3725719 23.04533461 -9.98469543 19.26100159 C-11.88045732 17.27965855 -12.52740034 16.20840423 -13.37104797 13.54951477 C-13.07601114 8.23042221 -12.69467757 4.92903275 -8.54682922 1.14717102 C-5.67516675 -0.28866022 -3.21077974 0.01121767 0 0 Z " fill="#969EB1" transform="translate(372.5468292236328,754.8528289794922)"/>
<path d="M0 0 C0.33 0 0.66 0 1 0 C1.0002442 0.6095322 1.0004884 1.2190644 1.00074001 1.84706727 C1.02747217 68.21807977 1.05915162 134.58908918 1.11663818 200.96008301 C1.11749569 201.95173906 1.1183532 202.94339512 1.1192367 203.96510135 C1.13790296 225.51722017 1.15745554 247.0693381 1.17792095 268.62145528 C1.187952 279.19083332 1.19778723 289.76021153 1.20751953 300.32958984 C1.20849134 301.3813618 1.20946314 302.43313375 1.2104644 303.51677758 C1.24186335 337.5987154 1.26033506 371.68064531 1.27209247 405.76259509 C1.28424456 440.79051873 1.30945944 475.81840932 1.35107614 510.84631093 C1.3569501 515.79542357 1.36267497 520.74453637 1.36830902 525.69364929 C1.36942248 526.66769161 1.37053594 527.64173393 1.37168314 528.64529269 C1.38921289 544.3154057 1.39300024 559.98549326 1.39162921 575.65561476 C1.39054434 591.41500003 1.40398328 607.1743202 1.43216428 622.93368077 C1.4484615 632.29296448 1.4537059 641.65210081 1.44297175 651.01139337 C1.4368925 657.27047247 1.44538114 663.52942462 1.4654923 669.78847402 C1.47652654 673.35032129 1.48143865 676.91186974 1.46851245 680.47371751 C1.39774033 701.73293765 1.78633832 721.77233466 17.16015625 738.22265625 C27.80699059 748.50781469 40.70439981 752.32477586 55.27443314 752.25168228 C56.28802782 752.25458916 57.30162251 752.25749604 58.34593219 752.26049101 C61.74592039 752.26779591 65.14572841 752.26084521 68.54571533 752.25396729 C71.00657422 752.25627153 73.46743242 752.2594478 75.92828918 752.26342177 C81.28063318 752.27003701 86.63292396 752.2704294 91.98526573 752.26532745 C99.94460642 752.25776112 107.90391308 752.26163074 115.86325355 752.26774407 C130.07992197 752.27827691 144.29657242 752.27736208 158.51324255 752.27158624 C170.95696822 752.26655555 183.40068729 752.26524153 195.84441376 752.26763153 C197.08245018 752.26786069 197.08245018 752.26786069 198.34549743 752.26809447 C201.69591959 752.26871715 205.04634173 752.26935395 208.39676388 752.270014 C239.83216283 752.2761331 271.26755033 752.27058374 302.70294751 752.2598202 C330.62472505 752.25033241 358.54648434 752.25117517 386.46826172 752.26074219 C417.84005283 752.27145538 449.21183382 752.27569561 480.58362651 752.26951766 C483.92919206 752.26887623 487.27475762 752.26825055 490.62032318 752.26763153 C491.44408294 752.26747338 492.2678427 752.26731522 493.11656487 752.26715227 C505.54897785 752.2648786 517.98138351 752.26753559 530.41379547 752.27259064 C544.55502291 752.27831184 558.69622956 752.27687393 572.83745441 752.26602915 C580.74898559 752.26016177 588.66047176 752.25976569 596.57200176 752.2673215 C602.48236084 752.27234282 608.3926803 752.26688609 614.30303487 752.25737235 C616.69195639 752.25513965 619.08088394 752.25627169 621.46980157 752.26112393 C649.05099506 752.42391558 649.05099506 752.42391558 672.44921875 738.71484375 C678.26335822 732.2856064 682.39775828 725.26304241 685 717 C685.51305852 715.3880928 685.51305852 715.3880928 686.03648186 713.74362183 C687.58753317 707.42052281 687.26891205 700.95316401 687.24050903 694.48486328 C687.24138194 693.00540436 687.2431345 691.52594574 687.24568737 690.04648876 C687.2501481 685.99416183 687.24217477 681.94194111 687.23213124 677.8896277 C687.22348066 673.51481274 687.22641804 669.1400036 687.22793579 664.7651825 C687.22898362 657.18984563 687.22271764 649.61454327 687.21146011 642.03921509 C687.19519431 631.08661603 687.189996 620.13403362 687.18748413 609.18142378 C687.18310873 591.41081604 687.16980381 573.64022667 687.15087891 555.86962891 C687.13251611 538.60888765 687.11836156 521.34815139 687.10986328 504.08740234 C687.10933783 503.02314671 687.10881239 501.95889108 687.10827102 500.86238527 C687.10566091 495.52323694 687.1031335 490.18408858 687.10064721 484.84494019 C687.07991952 440.56328073 687.04469819 396.28164131 687 352 C688.875 351.375 688.875 351.375 691 351 C691.66 351.66 692.32 352.32 693 353 C692.34 353.66 691.68 354.32 691 355 C690.70166221 357.59880012 690.70166221 357.59880012 690.76228428 360.68868637 C690.76015228 361.90670653 690.75802028 363.12472669 690.75582367 364.37965655 C690.76360373 365.74364491 690.77156174 367.10763226 690.77967834 368.47161865 C690.78095342 369.91117149 690.78134144 371.35072534 690.78091425 372.79027867 C690.7822694 376.76073671 690.79610568 380.73107048 690.8118459 384.70149398 C690.82660606 388.97851169 690.82981293 393.25553887 690.83427429 397.53257751 C690.84347572 404.95084511 690.85967227 412.369071 690.88023567 419.78731537 C690.90973471 430.52818899 690.92538841 441.26904958 690.93704777 452.00995579 C690.95608171 469.45505452 690.98183873 486.90013533 691.01391602 504.34521484 C691.01583395 505.39011728 691.01775188 506.43501972 691.01972794 507.51158586 C691.04125101 519.1560634 691.06440848 530.80053675 691.0894165 542.44500732 C691.09844705 546.66011552 691.10746381 550.87522375 691.11645508 555.09033203 C691.11867673 556.13032639 691.12089839 557.17032074 691.12318737 558.24183008 C691.15995672 575.60572268 691.18500452 592.96961041 691.20092481 610.33353448 C691.21124279 621.04053446 691.23161516 631.74742296 691.26504242 642.45437619 C691.28724156 649.80145244 691.29856783 657.14849482 691.30147774 664.49560383 C691.30351923 668.73022694 691.31042926 672.96469187 691.33069992 677.19927025 C691.34921004 681.084645 691.35353587 684.96978105 691.34712213 688.85519221 C691.3472412 690.25242169 691.35235496 691.64966279 691.36329199 693.04684946 C691.48635231 709.60806241 688.7275809 726.08829652 677.03735352 738.58496094 C665.38028996 750.26419004 652.3960722 756.07899944 635.82666665 756.1367898 C634.88966902 756.13502033 633.95267139 756.13325086 632.98727989 756.13142776 C631.97768127 756.1334804 630.96808264 756.13553303 629.92789012 756.13764787 C626.52950042 756.14332272 623.13115118 756.14186001 619.73275757 756.14044189 C617.27775006 756.14302525 614.82274297 756.14603832 612.36773646 756.1494453 C606.31829331 756.15667452 600.26886381 756.15921809 594.21941767 756.15977435 C586.97354808 756.1606885 579.72768664 756.16735756 572.48182056 756.17412117 C554.96924801 756.1901781 537.45667634 756.19608405 519.94409776 756.20086992 C511.65907249 756.20320612 503.3740479 756.20680879 495.08902317 756.2105653 C466.72691844 756.22340035 438.3648141 756.23411972 410.00270653 756.2375679 C408.222437 756.23778953 406.44216747 756.23801132 404.66189793 756.23823325 C402.87733744 756.23845389 401.09277695 756.23867438 399.30821645 756.2388947 C395.72810133 756.23933725 392.14798621 756.23978437 388.56787109 756.24023438 C387.23638137 756.24039846 387.23638137 756.24039846 385.87799286 756.24056586 C357.09487847 756.24419658 328.31178928 756.26011744 299.52868454 756.28342474 C269.09534871 756.30802326 238.66202727 756.32174074 208.22868121 756.32293582 C204.88757809 756.32310727 201.54647497 756.3233227 198.20537186 756.32357025 C197.38270225 756.32362602 196.56003264 756.32368179 195.71243365 756.32373925 C182.47615768 756.32488965 169.23990757 756.33591073 156.00364033 756.35045731 C142.69833165 756.36482686 129.39305609 756.36805669 116.08774178 756.36001733 C108.18508303 756.3555633 100.28253126 756.35941262 92.37988657 756.37525584 C86.47605573 756.38616378 80.57230508 756.38135775 74.66847189 756.37048396 C72.2821802 756.36852259 69.89587779 756.37162566 67.50960116 756.38032833 C46.39881576 756.45243923 30.41209607 754.31432169 14.734375 738.92578125 C6.17919075 730.06757638 -0.12639733 717.43122021 -0.1241985 704.95066524 C-0.12644579 703.92394985 -0.12869308 702.89723446 -0.13100848 701.83940649 C-0.12838146 700.71082928 -0.12575445 699.58225207 -0.12304783 698.41947556 C-0.12420167 697.21611486 -0.12535552 696.01275417 -0.12654433 694.772928 C-0.12874332 691.41663069 -0.12643201 688.06039009 -0.12226619 684.70409816 C-0.1188387 681.05888286 -0.12120151 677.41367069 -0.12284368 673.76845479 C-0.12492017 667.3745116 -0.12326896 660.9805777 -0.11920547 654.58663559 C-0.11317993 645.07902044 -0.11286879 635.57141117 -0.11374746 626.06379446 C-0.11506262 610.07185271 -0.11171521 594.07991509 -0.10573006 578.08797455 C-0.09981734 562.24907155 -0.09596498 546.41017027 -0.09487724 530.57126617 C-0.0948085 529.58723492 -0.09473976 528.60320366 -0.09466894 527.58935328 C-0.09433062 522.59215723 -0.09402923 517.59496117 -0.09374207 512.59776512 C-0.09164046 477.18301412 -0.08489979 441.76826536 -0.07543945 406.35351562 C-0.06625825 371.94401054 -0.05917305 337.53450607 -0.05493164 303.125 C-0.05480011 302.06474641 -0.05466859 301.00449281 -0.05453308 299.91211032 C-0.05321458 289.26481486 -0.05193876 278.6175194 -0.05069422 267.97022393 C-0.04815786 246.27956738 -0.04533661 224.58891088 -0.04234314 202.89825439 C-0.04220585 201.90090642 -0.04206856 200.90355844 -0.04192711 199.8759878 C-0.03272314 133.2506576 -0.01687755 66.62532864 0 0 Z " fill="#C6CAE8" transform="translate(267,152)"/>
<path d="M0 0 C1.00339978 -0.00205263 2.00679956 -0.00410527 3.0406054 -0.0062201 C6.41190639 -0.01188663 9.78316648 -0.01043327 13.1544714 -0.00901413 C15.59241738 -0.01159796 18.03036294 -0.01461117 20.46830791 -0.01801753 C26.47173432 -0.02524209 32.47514698 -0.02779006 38.47857639 -0.02834659 C45.67027125 -0.02926127 52.8619579 -0.0359319 60.05364923 -0.04269341 C77.43476352 -0.058745 94.81587693 -0.06465571 112.19699731 -0.06944216 C120.42113023 -0.07177892 128.64526245 -0.07538166 136.86939482 -0.07913754 C165.02742338 -0.09197223 193.18545155 -0.10269154 221.34348297 -0.10614014 C223.11071342 -0.10636177 224.87794387 -0.10658355 226.64517432 -0.10680549 C228.41664511 -0.10702613 230.18811589 -0.10724661 231.95958668 -0.10746694 C235.51339408 -0.10790949 239.06720148 -0.1083566 242.62100887 -0.10880661 C243.50214492 -0.108916 244.38328096 -0.10902539 245.2911181 -0.1091381 C273.85956272 -0.11276843 302.42798197 -0.12868798 330.99641687 -0.15199697 C361.20835669 -0.17660179 391.420282 -0.19031327 421.63223213 -0.19150805 C424.94976422 -0.19167951 428.2672963 -0.19189493 431.58482838 -0.19214249 C432.81011187 -0.19222614 432.81011187 -0.19222614 434.06014856 -0.19231148 C447.19648253 -0.19346135 460.33279043 -0.20447785 473.4691156 -0.21902954 C486.67687885 -0.2334072 499.88460874 -0.23662436 513.09237767 -0.22858956 C520.93463315 -0.22413932 528.77678076 -0.22796963 536.61902203 -0.24382807 C542.48139975 -0.25475215 548.34369688 -0.24991808 554.20607697 -0.2390562 C556.57285902 -0.23709785 558.93965192 -0.24018399 561.30641872 -0.24890056 C582.51929904 -0.32206259 600.51716847 1.13148405 616.64713192 16.55330276 C630.85865832 32.58681973 632.13646185 49.56692129 631.99478817 70.02595901 C631.99100155 71.29815796 631.98721493 72.5703569 631.98331356 73.88110733 C631.97121209 77.90208495 631.9527798 81.92298681 631.93228817 85.94392776 C631.9053107 91.2629332 631.88567976 96.58190567 631.86978817 101.90095901 C631.86148983 103.10944 631.85319149 104.31792099 631.84464169 105.56302261 C631.82735446 111.52213636 632.01134552 117.2409299 632.93228817 123.13142776 C631.61228817 123.46142776 630.29228817 123.79142776 628.93228817 124.13142776 C628.92864254 123.15582901 628.92499691 122.18023026 628.92124081 121.1750679 C628.88414218 111.93687194 628.82620873 102.69900473 628.74838543 93.46105957 C628.70904065 88.71282282 628.67678886 83.96476792 628.66129208 79.2163887 C628.64603928 74.62552273 628.61144289 70.03515714 628.56397915 65.44451523 C628.54925365 63.7016754 628.54125228 61.9587641 628.54040432 60.21586227 C628.52422684 43.62272633 625.46525402 29.82939346 613.68228817 17.38142776 C598.02849195 2.63773598 579.90754611 2.54098802 559.58275509 2.63022232 C557.11997729 2.62632516 554.65720175 2.6206814 552.19443148 2.61345142 C546.85952978 2.60180331 541.52484533 2.60246038 536.18995953 2.61423111 C528.2567259 2.63168643 520.32362209 2.62608758 512.39038156 2.6160642 C498.21890142 2.5989082 484.04749886 2.60438992 469.87602037 2.61942139 C457.47597876 2.63248876 445.07596402 2.63766612 432.67591572 2.63510323 C431.44068058 2.6348626 431.44068058 2.6348626 430.1804912 2.63461712 C426.83745521 2.6339535 423.49441923 2.63325108 420.15138326 2.63249178 C388.81391607 2.62547319 357.47649618 2.64094145 326.13904103 2.66711524 C298.3100988 2.69023548 270.48120854 2.6956155 242.65225887 2.68538284 C235.52381709 2.68278073 228.3953753 2.68019569 221.26693344 2.67778492 C220.3892796 2.67748747 219.51162577 2.67719002 218.60737636 2.67688356 C195.33656098 2.66926621 172.06574984 2.67568292 148.79493636 2.68648094 C146.29060538 2.68762872 143.78627441 2.6887719 141.28194343 2.68990776 C139.62071914 2.69066301 137.95949486 2.69142865 136.29827058 2.69220477 C123.90528923 2.69785879 111.51232134 2.69653611 99.11933994 2.69197655 C85.02767607 2.68686562 70.93606251 2.69273577 56.84441117 2.71287084 C48.96171077 2.72384495 41.07910928 2.7266617 33.19640589 2.71758231 C27.30779195 2.71173814 21.41927202 2.721613 15.53067454 2.73758196 C13.15071294 2.74162467 10.77073628 2.74062958 8.39078031 2.7340631 C-10.92953306 2.68532241 -27.29325949 3.84511507 -42.38021183 17.56892776 C-50.32269324 26.00456978 -56.1839745 37.64298941 -56.19832236 49.32419711 C-56.20200307 50.35746004 -56.20568378 51.39072298 -56.20947602 52.4552969 C-56.20845336 53.58606014 -56.20743069 54.71682337 -56.20637703 55.88185215 C-56.20921925 57.09143181 -56.21206147 58.30101147 -56.21498981 59.54724506 C-56.22189628 62.91631652 -56.22433193 66.2853384 -56.22491723 69.65441342 C-56.22664483 73.3152253 -56.23412939 76.97602605 -56.24089378 80.63683146 C-56.25195854 87.05659442 -56.25932559 93.47635344 -56.26429272 99.89612389 C-56.27169534 109.4421293 -56.2847777 118.98812097 -56.29903847 128.5341183 C-56.32286425 144.59099874 -56.34206202 160.64788161 -56.35863781 176.70477104 C-56.37506906 192.60704571 -56.3935477 208.50931583 -56.41477108 224.41158485 C-56.41608869 225.39970641 -56.41740629 226.38782797 -56.41876383 227.4058926 C-56.42546575 232.42389987 -56.43220436 237.44190709 -56.43895709 242.45991429 C-56.48674197 278.01830173 -56.52992072 313.57669343 -56.57039738 349.13508987 C-56.60973462 383.68327011 -56.65115407 418.23144681 -56.69539738 452.77962112 C-56.69675991 453.84422536 -56.69812244 454.90882959 -56.69952626 456.00569456 C-56.71321143 466.69672066 -56.72693898 477.3877467 -56.7406976 488.0787727 C-56.76872543 509.85834292 -56.79647035 531.63791349 -56.82404423 553.41748428 C-56.82531243 554.41891144 -56.82658063 555.42033859 -56.82788725 556.45211202 C-56.91256768 623.34521154 -56.99065251 690.23831908 -57.06771183 757.13142776 C-57.39771183 757.13142776 -57.72771183 757.13142776 -58.06771183 757.13142776 C-58.23165495 689.32560753 -58.39062018 621.51977614 -58.52309513 553.71388626 C-58.5250571 552.71040008 -58.52701906 551.7069139 -58.52904048 550.67301904 C-58.57164899 528.86476539 -58.61336297 507.05651012 -58.65415542 485.248253 C-58.67416536 474.55354922 -58.69437298 463.85884582 -58.71468449 453.16414261 C-58.71670237 452.09988888 -58.71872024 451.03563515 -58.72079927 449.9391313 C-58.78630177 415.44118902 -58.86485847 380.94329147 -58.95018206 346.445393 C-59.03779136 310.99547317 -59.11223627 275.54554951 -59.17010789 240.09556807 C-59.17828727 235.08895368 -59.18661719 230.08233955 -59.1950388 225.07572556 C-59.19669164 224.09034834 -59.19834448 223.10497112 -59.20004741 222.08973399 C-59.22704501 206.22539474 -59.26792728 190.36112018 -59.31399731 174.49682612 C-59.36001274 158.54935647 -59.39141125 142.60191115 -59.40788713 126.65438315 C-59.41812104 117.17868918 -59.4395644 107.70317498 -59.47706392 98.22754886 C-59.50101594 91.89604184 -59.51034704 85.56462162 -59.50785863 79.23307009 C-59.50685773 75.6265234 -59.51214807 72.02029559 -59.53528973 68.41381612 C-59.560104 64.52349856 -59.5536375 60.63358009 -59.54428577 56.74318695 C-59.55639817 55.63081281 -59.56851057 54.51843868 -59.58099002 53.37235624 C-59.4840359 39.91185221 -54.53131525 28.42369829 -45.63021183 18.38142776 C-44.78458683 17.63892776 -43.93896183 16.89642776 -43.06771183 16.13142776 C-42.51857121 15.59131058 -41.96943058 15.05119339 -41.40364933 14.49470901 C-29.73336712 3.42474996 -15.63715851 -0.02983616 0 0 Z " fill="#E1E3EC" transform="translate(326.06771183013916,99.86857223510742)"/>
<path d="M0 0 C0.33 0 0.66 0 1 0 C1.0002442 0.6095322 1.0004884 1.2190644 1.00074001 1.84706727 C1.02747217 68.21807977 1.05915162 134.58908918 1.11663818 200.96008301 C1.11749569 201.95173906 1.1183532 202.94339512 1.1192367 203.96510135 C1.13790296 225.51722017 1.15745554 247.0693381 1.17792095 268.62145528 C1.187952 279.19083332 1.19778723 289.76021153 1.20751953 300.32958984 C1.20849134 301.3813618 1.20946314 302.43313375 1.2104644 303.51677758 C1.24186335 337.5987154 1.26033506 371.68064531 1.27209247 405.76259509 C1.28424456 440.79051873 1.30945944 475.81840932 1.35107614 510.84631093 C1.3569501 515.79542357 1.36267497 520.74453637 1.36830902 525.69364929 C1.36942248 526.66769161 1.37053594 527.64173393 1.37168314 528.64529269 C1.38921289 544.3154057 1.39300024 559.98549326 1.39162921 575.65561476 C1.39054434 591.41500003 1.40398328 607.1743202 1.43216428 622.93368077 C1.4484615 632.29296448 1.4537059 641.65210081 1.44297175 651.01139337 C1.4368925 657.27047247 1.44538114 663.52942462 1.4654923 669.78847402 C1.47652654 673.35032129 1.48143865 676.91186974 1.46851245 680.47371751 C1.39774033 701.73293765 1.78633832 721.77233466 17.16015625 738.22265625 C27.80831044 748.5090897 40.70641763 752.31867393 55.27671814 752.26171303 C56.29053124 752.26570909 57.30434433 752.26970515 58.34887904 752.27382231 C61.74948123 752.28480003 65.14992079 752.28159475 68.55053711 752.2784729 C71.01169964 752.28347555 73.47286052 752.28935125 75.93401909 752.29602563 C81.28669564 752.30853944 86.63932666 752.31488265 91.99201393 752.31578636 C99.95122681 752.31716362 107.91039286 752.32995451 115.86959004 752.3450741 C129.25885995 752.37018609 142.64812591 752.38605656 156.03741455 752.39665604 C169.2940557 752.40718071 182.55068182 752.42181538 195.80731201 752.44193649 C197.04380164 752.44380979 197.04380164 752.44380979 198.30527085 752.44572094 C202.491626 752.45208471 206.67798102 752.45852189 210.86433601 752.46498732 C240.51452998 752.51064725 270.16472882 752.54709609 299.81494141 752.578125 C328.61931065 752.60828983 357.42366998 752.64262877 386.22802734 752.68261719 C387.1159384 752.68384819 388.00384946 752.68507919 388.91866691 752.6863475 C397.83545302 752.69871438 406.752239 752.7111661 415.6690249 752.72367998 C433.8334671 752.74917016 451.99791006 752.77409406 470.16235352 752.79867554 C470.99752111 752.79980645 471.83268869 752.80093736 472.69316439 752.80210253 C528.4620981 752.87755491 584.23104804 752.93976564 640 753 C640 753.33 640 753.66 640 754 C451.9 754.33 263.8 754.66 70 755 C70 755.33 70 755.66 70 756 C48.77484534 756.52604285 32.43996258 755.52936952 16.21679688 740.38085938 C7.67879452 732.00034323 0.51961379 719.86314217 -0.12467116 707.63353197 C-0.12451518 706.74818595 -0.1243592 705.86283993 -0.1241985 704.95066524 C-0.12644579 703.92394985 -0.12869308 702.89723446 -0.13100848 701.83940649 C-0.12838146 700.71082928 -0.12575445 699.58225207 -0.12304783 698.41947556 C-0.12420167 697.21611486 -0.12535552 696.01275417 -0.12654433 694.772928 C-0.12874332 691.41663069 -0.12643201 688.06039009 -0.12226619 684.70409816 C-0.1188387 681.05888286 -0.12120151 677.41367069 -0.12284368 673.76845479 C-0.12492017 667.3745116 -0.12326896 660.9805777 -0.11920547 654.58663559 C-0.11317993 645.07902044 -0.11286879 635.57141117 -0.11374746 626.06379446 C-0.11506262 610.07185271 -0.11171521 594.07991509 -0.10573006 578.08797455 C-0.09981734 562.24907155 -0.09596498 546.41017027 -0.09487724 530.57126617 C-0.0948085 529.58723492 -0.09473976 528.60320366 -0.09466894 527.58935328 C-0.09433062 522.59215723 -0.09402923 517.59496117 -0.09374207 512.59776512 C-0.09164046 477.18301412 -0.08489979 441.76826536 -0.07543945 406.35351562 C-0.06625825 371.94401054 -0.05917305 337.53450607 -0.05493164 303.125 C-0.05480011 302.06474641 -0.05466859 301.00449281 -0.05453308 299.91211032 C-0.05321458 289.26481486 -0.05193876 278.6175194 -0.05069422 267.97022393 C-0.04815786 246.27956738 -0.04533661 224.58891088 -0.04234314 202.89825439 C-0.04220585 201.90090642 -0.04206856 200.90355844 -0.04192711 199.8759878 C-0.03272314 133.2506576 -0.01687755 66.62532864 0 0 Z " fill="#D2D6E6" transform="translate(267,152)"/>
<path d="M0 0 C1.94458008 1.37695312 1.94458008 1.37695312 3.76953125 3.28125 C4.43017578 3.95800781 5.09082031 4.63476562 5.77148438 5.33203125 C6.44501953 6.04746094 7.11855469 6.76289062 7.8125 7.5 C8.50537109 8.21542969 9.19824219 8.93085937 9.91210938 9.66796875 C11.61985699 11.43460421 13.31486688 13.21182487 15 15 C19.13836498 11.56730572 22.91444386 8.08287172 26.5 4.0625 C30.46239314 0.02560033 30.46239314 0.02560033 34.9375 -0.1875 C38 1 38 1 40 3 C40.5625 6.16015625 40.5625 6.16015625 40 10 C38.00319767 12.84677256 35.56170802 15.10080688 33 17.4375 C32.33226562 18.07365234 31.66453125 18.70980469 30.9765625 19.36523438 C29.33240682 20.92718227 27.67425288 22.47046313 26 24 C28.18256609 28.83476555 31.94294493 31.92263494 35.83203125 35.40234375 C38.55542727 37.98066782 39.92222664 39.46779881 40.47265625 43.234375 C40 46 40 46 38.3125 48.375 C35.5164478 50.33979344 34.35376843 50.39690315 31 50 C29.05541992 48.62304688 29.05541992 48.62304688 27.23046875 46.71875 C26.56982422 46.04199219 25.90917969 45.36523438 25.22851562 44.66796875 C24.55498047 43.95253906 23.88144531 43.23710938 23.1875 42.5 C22.49462891 41.78457031 21.80175781 41.06914063 21.08789062 40.33203125 C19.38014301 38.56539579 17.68513312 36.78817513 16 35 C11.04163636 39.13403347 6.57017101 43.47378406 2.2109375 48.2421875 C0 50 0 50 -2.62890625 50.359375 C-5 50 -5 50 -7.3125 48.375 C-9.58043378 45.18309319 -9.63489138 43.87329416 -9 40 C-6.96400148 37.22428927 -4.52169246 34.95683531 -2 32.625 C-1.33226562 31.98433594 -0.66453125 31.34367188 0.0234375 30.68359375 C1.66958223 29.10799808 3.32803435 27.54809281 5 26 C2.82694793 21.18051315 -0.92737884 18.12110489 -4.83203125 14.68554688 C-7.93248694 11.76901653 -8.92154639 10.62503535 -9.47265625 6.234375 C-9 3 -9 3 -7.3125 1.0625 C-4.57326627 -0.19606685 -2.99114337 -0.31340351 0 0 Z " fill="#FDF7F7" transform="translate(794,523)"/>
<path d="M0 0 C2.68768795 2.0639629 4.8745546 4.53861338 7.125 7.0625 C8.3239229 8.39760629 9.53440043 9.72245376 10.7578125 11.03515625 C11.2852002 11.6269165 11.81258789 12.21867676 12.35595703 12.82836914 C13.938126 14.21700514 13.938126 14.21700514 16.01367188 13.86914062 C18.25737664 12.8873819 19.39002174 11.87334956 21.0234375 10.05859375 C21.57 9.47529297 22.1165625 8.89199219 22.6796875 8.29101562 C23.80829679 7.05708681 24.93073854 5.81748796 26.046875 4.57226562 C30.26188874 0.10494473 30.26188874 0.10494473 34.296875 -0.46875 C37 0 37 0 38.875 1.0625 C40.72433962 4.24747379 40.48006441 6.36628172 40 10 C38.00699325 12.8491055 35.56139486 15.10109253 33 17.4375 C32.33226562 18.07365234 31.66453125 18.70980469 30.9765625 19.36523438 C29.33240682 20.92718227 27.67425288 22.47046313 26 24 C28.18256609 28.83476555 31.94294493 31.92263494 35.83203125 35.40234375 C38.57950343 38.00346148 39.92769367 39.45542263 40.43359375 43.265625 C40 46 40 46 38.9375 47.875 C35.75252621 49.72433962 33.63371828 49.48006441 30 49 C27.1508945 47.00699325 24.89890747 44.56139486 22.5625 42 C21.92634766 41.33226562 21.29019531 40.66453125 20.63476562 39.9765625 C19.07281773 38.33240682 17.52953687 36.67425288 16 35 C12.07226228 38.27265506 8.40282871 41.5468177 5 45.375 C2.13379939 48.28572411 1.36135664 48.93483733 -2.8125 49.6875 C-6 49 -6 49 -7.9375 47.875 C-9.57203744 44.99052217 -9.46716039 43.28958773 -9 40 C-7.14735034 37.45434018 -4.89244269 35.41798747 -2.5625 33.3125 C-1.35128992 32.18807842 -0.14406878 31.05934052 1.05859375 29.92578125 C1.59798584 29.43505127 2.13737793 28.94432129 2.69311523 28.4387207 C4.25193423 26.91719828 4.25193423 26.91719828 5 24 C3.60596932 22.4358915 2.20968495 20.8737915 0.8125 19.3125 C-0.00476563 18.39597656 -0.82203125 17.47945312 -1.6640625 16.53515625 C-3.40849282 14.64195344 -5.13368754 12.93910456 -7.0625 11.25 C-9 9 -9 9 -9.5 5.875 C-9 3 -9 3 -7.875 1.125 C-4.96909468 -0.61854319 -3.36207149 -0.51693822 0 0 Z " fill="#FDF7F7" transform="translate(794,703)"/>
<path d="M0 0 C4.52264835 2.09890863 7.55441231 4.2574421 9.37109375 9.046875 C10.25531092 15.23639518 9.71009274 19.70318718 6.68359375 25.234375 C3.14781676 28.67710522 -0.36351373 31.18506882 -5.421875 31.26953125 C-11.68413943 30.83945949 -15.89718833 28.98727815 -20.12890625 24.171875 C-22.83368822 19.75880968 -22.90906734 15.25112592 -22.31640625 10.234375 C-20.97420023 6.29979392 -18.73705817 3.62498035 -15.69140625 0.796875 C-10.45131378 -1.62909374 -5.50865035 -1.82073435 0 0 Z " fill="#F8F8FD" transform="translate(1039.31640625,400.765625)"/>
<path d="M0 0 C2 1 2 1 2.62718201 2.76083374 C4.21737742 10.48523693 4.23912938 18.05601484 4.16015625 25.9140625 C4.1538683 27.33791695 4.14863409 28.7617764 4.14439392 30.18563843 C4.13119346 33.90779901 4.10681199 37.62979036 4.07904053 41.35186768 C4.03565658 47.31403934 4.00603726 53.27625537 3.9829998 59.23853683 C3.97288072 61.30570688 3.9558259 63.37273384 3.93800354 65.43984985 C3.90562335 71.72889629 3.99619627 77.7863516 5 84 C3.02 84.495 3.02 84.495 1 85 C0.67 56.95 0.34 28.9 0 0 Z " fill="#D6D8E8" transform="translate(954,139)"/>
<path d="M0 0 C2.0587772 3.0881658 2.24656204 3.68283498 2.21118164 7.16088867 C2.20780289 7.99573288 2.20442413 8.83057709 2.20094299 9.6907196 C2.18748337 10.59071182 2.17402374 11.49070404 2.16015625 12.41796875 C2.1523539 13.8147863 2.1523539 13.8147863 2.14439392 15.23982239 C2.12656864 18.2225394 2.09543417 21.20491448 2.0625 24.1875 C2.03477449 27.15220077 2.0100266 30.11684746 1.99131775 33.08161926 C1.97918298 34.92597445 1.9617032 36.77030489 1.93800354 38.61454773 C1.89784175 43.84533402 2.23459877 48.82369758 3 54 C1.02 54.495 1.02 54.495 -1 55 C-0.67 36.85 -0.34 18.7 0 0 Z " fill="#CBCEEE" transform="translate(956,169)"/>
<path d="M0 0 C4.1413833 3.4808174 8.13790851 7.01695326 11.9375 10.875 C12.70964844 11.65617188 13.48179687 12.43734375 14.27734375 13.2421875 C14.84582031 13.82226562 15.41429687 14.40234375 16 15 C11.92412524 15 11.01409161 13.74008328 8 11 C5.60155971 8.38714613 3.28465854 5.71262052 1 3 C-2.94832516 6.29027096 -6.53798881 9.57490178 -10 13.375 C-12.82900204 16.23689741 -13.66407703 16.93281541 -17.75 17.75 C-21.55587463 16.87172124 -22.83666939 16.24499591 -25 13 C-25.75 9.25 -25.75 9.25 -26 6 C-25.34 5.67 -24.68 5.34 -24 5 C-23.896875 6.093125 -23.79375 7.18625 -23.6875 8.3125 C-23.26849 11.85244788 -23.26849 11.85244788 -21.75 13.9375 C-19.3316458 15.40578648 -17.79693755 15.28913215 -15 15 C-12.9714297 13.65572615 -12.9714297 13.65572615 -11.23046875 11.71875 C-10.23950195 10.70361328 -10.23950195 10.70361328 -9.22851562 9.66796875 C-8.21821289 8.59482422 -8.21821289 8.59482422 -7.1875 7.5 C-6.49462891 6.78457031 -5.80175781 6.06914063 -5.08789062 5.33203125 C-3.38014301 3.56539579 -1.68513312 1.78817513 0 0 Z " fill="#FD2B20" transform="translate(809,557)"/>
<path d="M0 0 C1.75944472 2.63916708 2.68645652 4.68626145 3.75 7.625 C6.72000663 15.18802805 10.94284956 21.54856461 17 27 C17.886875 27.825 18.77375 28.65 19.6875 29.5 C25.02223493 33.88111651 31.62164287 36.5100531 38 39 C35.0301901 40.29377857 33.92647642 39.97247393 30.828125 38.8125 C29.62706534 38.22511068 28.43459273 37.61992789 27.25 37 C26.62601318 36.67749268 26.00202637 36.35498535 25.35913086 36.02270508 C14.15211896 30.03835006 5.37296168 20.06168551 1 8 C0.45309782 5.3025672 0.19678537 2.75499515 0 0 Z " fill="#FB3830" transform="translate(757,739)"/>
<path d="M0 0 C0 5.67045923 -5.30242066 9.98773306 -9 14 C-10.93549848 15.54755543 -12.87053022 16.71241362 -15 18 C-16.34294481 19.65893182 -17.67744688 21.32476605 -19 23 C-21.0625 24.125 -21.0625 24.125 -23 25 C-24.70921589 26.5412312 -24.70921589 26.5412312 -26 28 C-25.42505476 24.68645265 -24.49438093 23.15384922 -22.015625 20.90625 C-21.40976563 20.35066406 -20.80390625 19.79507812 -20.1796875 19.22265625 C-19.54289062 18.65417969 -18.90609375 18.08570313 -18.25 17.5 C-17.31800781 16.64728516 -17.31800781 16.64728516 -16.3671875 15.77734375 C-13.72066582 13.37090737 -11.06054875 11.04788777 -8.25390625 8.828125 C-6.12399528 7.10057157 -4.4309624 5.35837313 -2.6875 3.25 C-1.91986328 2.32960938 -1.91986328 2.32960938 -1.13671875 1.390625 C-0.76160156 0.93171875 -0.38648438 0.4728125 0 0 Z " fill="#2423C7" transform="translate(1076,337)"/>
<path d="M0 0 C3.28530615 3.18834399 6.20392524 6.44180163 9 10.0625 C14.37103407 16.73312438 20.60136954 22.33320672 27 28 C26.67 28.66 26.34 29.32 26 30 C16.43575765 21.48766247 6.99627224 12.83293766 0 2 C0 1.34 0 0.68 0 0 Z " fill="#2B28D0" transform="translate(909,429)"/>
<path d="M0 0 C0.33 0 0.66 0 1 0 C1.21914063 1.02738281 1.43828125 2.05476562 1.6640625 3.11328125 C3.75225584 12.40787701 6.03485915 22.03485915 13 29 C12.67 29.99 12.34 30.98 12 32 C5.0893902 22.87644211 0.13478105 13.57031661 -1 2 C-0.67 1.34 -0.34 0.68 0 0 Z " fill="#D9DBE9" transform="translate(268,857)"/>
<path d="M0 0 C4.95998472 0.61632946 8.93671966 2.79835629 13.3125 5.0625 C14.05306641 5.43955078 14.79363281 5.81660156 15.55664062 6.20507812 C17.37387522 7.13128157 19.18732404 8.06490629 21 9 C17.59068103 10.13643966 16.99664544 9.86747764 13.8125 8.5625 C13.09707031 8.27503906 12.38164063 7.98757812 11.64453125 7.69140625 C11.10183594 7.46324219 10.55914063 7.23507813 10 7 C10 6.34 10 5.68 10 5 C9.04287109 4.70996094 9.04287109 4.70996094 8.06640625 4.4140625 C6.82697266 4.02347656 6.82697266 4.02347656 5.5625 3.625 C4.73878906 3.36976563 3.91507813 3.11453125 3.06640625 2.8515625 C1 2 1 2 0 0 Z " fill="#3431DE" transform="translate(1090,214)"/>
<path d="M0 0 C0.66 1.32 1.32 2.64 2 4 C2.33 4.33 2.66 4.66 3 5 C3.01676178 6.92873499 2.96268831 8.85816892 2.87890625 10.78515625 C2.83056641 11.95498047 2.78222656 13.12480469 2.73242188 14.33007812 C2.67634766 15.56177734 2.62027344 16.79347656 2.5625 18.0625 C2.51029297 19.29806641 2.45808594 20.53363281 2.40429688 21.80664062 C2.27413667 24.87132191 2.13915654 27.93571613 2 31 C1.67 31 1.34 31 1 31 C0.67 20.77 0.34 10.54 0 0 Z " fill="#4141DD" transform="translate(884,330)"/>
<path d="M0 0 C2.125 0.9375 2.125 0.9375 4 2 C3.34 2.66 2.68 3.32 2 4 C1.83275263 6.83304044 1.83275263 6.83304044 2 10 C2.125 13.25 2.125 13.25 2 16 C1.34 16.66 0.68 17.32 0 18 C-0.66 12.39 -1.32 6.78 -2 1 C-1.34 0.67 -0.68 0.34 0 0 Z " fill="#C3C8F0" transform="translate(956,503)"/>
<path d="M0 0 C6.76463575 1.90255381 12.03207449 7.40547148 16 13 C15.67 13.66 15.34 14.32 15 15 C13.79557292 13.47005208 12.59114583 11.94010417 11.38671875 10.41015625 C9.94316909 8.72844923 9.94316909 8.72844923 7 8 C5.62517293 6.36739286 4.29352333 4.69774938 3 3 C2.01769502 1.9826127 1.02530403 0.97403883 0 0 Z " fill="#FC3E31" transform="translate(838,502)"/>
<path d="M0 0 C5.66129431 4.69766975 10.85228904 9.74723372 16 15 C11.92412524 15 11.01409161 13.74008328 8 11 C1.32317737 3.9695321 1.32317737 3.9695321 0 0 Z " fill="#FC3C30" transform="translate(809,557)"/>
<path d="M0 0 C0.33 0.66 0.66 1.32 1 2 C-1.65654657 5.73884332 -3.58110387 7.64978174 -8 9 C-8.66 8.34 -9.32 7.68 -10 7 C-6.7 4.69 -3.4 2.38 0 0 Z " fill="#DADEFA" transform="translate(1128,461)"/>
<path d="M0 0 C6.17047326 1.7354456 10.57877075 6.57877075 15 11 C14.67 11.99 14.34 12.98 14 14 C13.6596875 13.56429687 13.319375 13.12859375 12.96875 12.6796875 C9.547392 8.47578486 5.97800786 5.27298678 1.5390625 2.1640625 C1.03117188 1.77992188 0.52328125 1.39578125 0 1 C0 0.67 0 0.34 0 0 Z " fill="#FB3D32" transform="translate(837,681)"/>
<path d="M0 0 C1.31322788 0.97819024 2.62556152 1.9575811 3.9375 2.9375 C4.66839844 3.48277344 5.39929688 4.02804687 6.15234375 4.58984375 C8 6 8 6 9 7 C9.04080783 8.99958364 9.04254356 11.00045254 9 13 C8.01 13.495 8.01 13.495 7 14 C6.6596875 12.4221875 6.6596875 12.4221875 6.3125 10.8125 C5.20691905 6.82595265 3.03239701 4.79299724 0 2 C0 1.34 0 0.68 0 0 Z " fill="#D8D9F9" transform="translate(927,452)"/>
<path d="M0 0 C0 0.99 0 1.98 0 3 C-1.44355149 4.24670356 -2.8941849 5.48740956 -4.3984375 6.66015625 C-6.6136091 8.5133364 -8.28377185 10.68969287 -10 13 C-10.66 12.67 -11.32 12.34 -12 12 C-8.27653164 7.57905197 -4.70478962 3.42166518 0 0 Z " fill="#FC3C33" transform="translate(777,683)"/>
<path d="M0 0 C0.85851562 0.55300781 0.85851562 0.55300781 1.734375 1.1171875 C-5.3125 4.80078125 -5.3125 4.80078125 -8.265625 5.1171875 C-8.925625 4.4571875 -9.585625 3.7971875 -10.265625 3.1171875 C-9.02678181 2.38951747 -7.77394159 1.68563935 -6.515625 0.9921875 C-5.81953125 0.59773438 -5.1234375 0.20328125 -4.40625 -0.203125 C-2.265625 -0.8828125 -2.265625 -0.8828125 0 0 Z " fill="#CBCFF9" transform="translate(988.265625,489.8828125)"/>
<path d="M0 0 C0.66 0 1.32 0 2 0 C2.25 7.5 2.25 7.5 0 12 C0 8.04 0 4.08 0 0 Z M-1 12 C0.125 13.75 0.125 13.75 1 16 C0.125 18.25 0.125 18.25 -1 20 C-1.33 20 -1.66 20 -2 20 C-1.67 17.36 -1.34 14.72 -1 12 Z " fill="#4743DE" transform="translate(931,484)"/>
<path d="M0 0 C4.25209792 4.12324647 8.13635705 8.51282966 12 13 C9 13 9 13 7.02734375 11.390625 C6.33769531 10.68421875 5.64804687 9.9778125 4.9375 9.25 C4.24527344 8.55390625 3.55304687 7.8578125 2.83984375 7.140625 C1.13095371 5.15236228 0.03957488 3.39156086 -1 1 C-0.67 0.67 -0.34 0.34 0 0 Z " fill="#ECECFC" transform="translate(913,436)"/>
<path d="M0 0 C0.66 0.33 1.32 0.66 2 1 C1.236875 1.825 0.47375 2.65 -0.3125 3.5 C-3.29705636 7.04416068 -4.56553511 10.62110717 -6 15 C-6.33 15 -6.66 15 -7 15 C-7.48311017 11.77926556 -7.4060262 9.66939455 -5.69921875 6.85546875 C-3.90328071 4.47660094 -2.11074387 2.11074387 0 0 Z " fill="#2728CA" transform="translate(1019,298)"/>
<path d="M0 0 C0.66 0.33 1.32 0.66 2 1 C-1.96 5.29 -5.92 9.58 -10 14 C-10.66 13.67 -11.32 13.34 -12 13 C-8.04 8.71 -4.08 4.42 0 0 Z " fill="#2B2BD1" transform="translate(930,243)"/>
<path d="M0 0 C2.09350689 3.4019487 2.17942163 6.05272412 2 10 C4.31 10 6.62 10 9 10 C8.67 10.66 8.34 11.32 8 12 C6.02 12 4.04 12 2 12 C-0.05257931 8.55166676 -1.0632763 6.68338409 -0.6875 2.625 C-0.460625 1.75875 -0.23375 0.8925 0 0 Z " fill="#4C4CE0" transform="translate(927,500)"/>
<path d="M0 0 C1.74216797 0.02707031 1.74216797 0.02707031 3.51953125 0.0546875 C4.39996094 0.07789063 5.28039063 0.10109375 6.1875 0.125 C6.1875 0.455 6.1875 0.785 6.1875 1.125 C4.86685547 1.32416016 4.86685547 1.32416016 3.51953125 1.52734375 C1.77736328 1.79224609 1.77736328 1.79224609 0 2.0625 C-1.72283203 2.32353516 -1.72283203 2.32353516 -3.48046875 2.58984375 C-6.27575212 3.03879313 -9.04183586 3.54582162 -11.8125 4.125 C-11.8125 3.465 -11.8125 2.805 -11.8125 2.125 C-7.73526266 0.17468308 -4.49557578 -0.09081971 0 0 Z " fill="#2422CC" transform="translate(1033.8125,293.875)"/>
<path d="M0 0 C0 0.66 0 1.32 0 2 C-1.28650706 2.69710731 -2.57940665 3.38242876 -3.875 4.0625 C-4.95394531 4.63677734 -4.95394531 4.63677734 -6.0546875 5.22265625 C-6.69664063 5.47917969 -7.33859375 5.73570312 -8 6 C-10 5 -10 5 -11 3 C-9.54293274 2.49632243 -8.08429904 1.99717444 -6.625 1.5 C-5.81289062 1.2215625 -5.00078125 0.943125 -4.1640625 0.65625 C-2 0 -2 0 0 0 Z " fill="#D5D9F9" transform="translate(1089,484)"/>
<path d="M0 0 C0.33 0.66 0.66 1.32 1 2 C-0.21484375 4.8203125 -0.21484375 4.8203125 -1.9375 8.125 C-2.50339844 9.22070312 -3.06929687 10.31640625 -3.65234375 11.4453125 C-4.09707031 12.28835938 -4.54179688 13.13140625 -5 14 C-5.66 12.68 -6.32 11.36 -7 10 C-5.39798254 7.59697381 -3.73097696 5.30796929 -2 3 C-1.34 2.01 -0.68 1.02 0 0 Z " fill="#4441DF" transform="translate(903,281)"/>
<path d="M0 0 C0.79921875 0.02707031 1.5984375 0.05414063 2.421875 0.08203125 C3.02515625 0.11683594 3.6284375 0.15164062 4.25 0.1875 C4.25 0.8475 4.25 1.5075 4.25 2.1875 C1.60541621 3.50979189 -0.42761301 3.28427194 -3.375 3.25 C-4.37789062 3.24097656 -5.38078125 3.23195312 -6.4140625 3.22265625 C-7.18492187 3.21105469 -7.95578125 3.19945312 -8.75 3.1875 C-5.74754796 0.56379764 -3.97853212 -0.17552348 0 0 Z " fill="#4743E1" transform="translate(1024.75,202.8125)"/>
<path d="M0 0 C2.62187494 1.04874998 3.79371361 1.64931313 5.25 4.125 C5.4975 4.74375 5.745 5.3625 6 6 C6.99 6 7.98 6 9 6 C9 6.66 9 7.32 9 8 C4.75153925 7.52794881 2.73180712 5.11122478 0 2 C0 1.34 0 0.68 0 0 Z " fill="#FA433E" transform="translate(802,710)"/>
<path d="M0 0 C0.33 0 0.66 0 1 0 C1.12375 1.093125 1.2475 2.18625 1.375 3.3125 C1.75464801 7.07381802 1.75464801 7.07381802 4 10 C3.01 10 2.02 10 1 10 C-0.85064319 6.87703962 -1.29356154 4.62059232 -1 1 C-0.67 0.67 -0.34 0.34 0 0 Z " fill="#FC3A31" transform="translate(784,562)"/>
<path d="M0 0 C0.99 0 1.98 0 3 0 C2.67 3.3 2.34 6.6 2 10 C0.0044484 6.00889681 -0.19546065 4.30013434 0 0 Z " fill="#DEDEF7" transform="translate(930,474)"/>
<path d="M0 0 C0.66 0 1.32 0 2 0 C3.5625 2.8125 3.5625 2.8125 5 6 C4.67 6.99 4.34 7.98 4 9 C0.06153846 5.67692308 0.06153846 5.67692308 -0.25 2.25 C-0.1675 1.5075 -0.085 0.765 0 0 Z " fill="#3F3FE1" transform="translate(897,406)"/>
<path d="M0 0 C2.33524782 2.25740623 4.18705073 4.2805761 6 7 C5.67 7.99 5.34 8.98 5 10 C4.15801693 8.90241493 3.32669329 7.79664683 2.5 6.6875 C2.0359375 6.07261719 1.571875 5.45773437 1.09375 4.82421875 C0 3 0 3 0 0 Z " fill="#F4F3FE" transform="translate(1157,263)"/>
<path d="M0 0 C1.485 0.99 1.485 0.99 3 2 C3 2.66 3 3.32 3 4 C3.66 4 4.32 4 5 4 C5.33 5.32 5.66 6.64 6 8 C2.83884224 6.63016497 2.0072908 6.0109362 0 3 C0 2.01 0 1.02 0 0 Z " fill="#F1EFFD" transform="translate(1150,254)"/>
<path d="M0 0 C-1.65 0.33 -3.3 0.66 -5 1 C-5 1.66 -5 2.32 -5 3 C-5.99 3.33 -6.98 3.66 -8 4 C-8 3.34 -8 2.68 -8 2 C-8.66 1.67 -9.32 1.34 -10 1 C-3.71428571 -1.42857143 -3.71428571 -1.42857143 0 0 Z " fill="#3833DC" transform="translate(990,211)"/>
<path d="M0 0 C3.39417765 3.12621626 5.6062718 5.56541027 7 10 C2.78577758 7.11658466 1.23924145 4.95696581 0 0 Z " fill="#FC322D" transform="translate(762,573)"/>
<path d="M0 0 C1.5 1.0625 1.5 1.0625 3 3 C3.1875 6.6875 3.1875 6.6875 3 10 C-0.00617269 6.99382731 0.40414684 4.17618402 0 0 Z " fill="#F7F7FE" transform="translate(1179,309)"/>
<path d="M0 0 C3.25543229 0.34879632 4.01873107 1.02133261 6.25 3.5625 C6.8275 4.366875 7.405 5.17125 8 6 C4.74456771 5.65120368 3.98126893 4.97866739 1.75 2.4375 C1.1725 1.633125 0.595 0.82875 0 0 Z " fill="#F7F6FD" transform="translate(1139,244)"/>
<path d="M0 0 C3.36720387 1.39332574 4.9859524 2.9789286 7 6 C6.67 6.66 6.34 7.32 6 8 C4.99403703 7.0479279 3.99538437 6.08812654 3 5.125 C2.443125 4.59132813 1.88625 4.05765625 1.3125 3.5078125 C0 2 0 2 0 0 Z " fill="#FB443E" transform="translate(828,736)"/>
<path d="M0 0 C3.45925163 1.2491742 6.14693203 2.67527795 9 5 C5.26512223 4.5020163 3.18762365 4.12508244 0 2 C0 1.34 0 0.68 0 0 Z " fill="#F5F4FD" transform="translate(1101,216)"/>
</svg>
