<svg xmlns="http://www.w3.org/2000/svg" viewBox="0 0 300 62.198" aria-label="Founders Hub Logo"><path d="M46.47 0v12.436c0 5.9-4.82 10.7-10.746 10.7h-8.996a26.6 26.6 0 0 0-10.745 2.251v-9.466h23.235V0H0v36.138a30 30 0 0 1 4.372-6.322V4.353h30.48v7.215H11.617v16.247C4.605 32.621 0 40.66 0 49.756v12.437h15.989V49.756c0-5.9 4.82-10.7 10.746-10.7h8.995c3.822 0 7.455-.805 10.746-2.252v25.388h15.99V0zm11.617 57.839h-7.246V34.376a26.9 26.9 0 0 0 7.246-7.378zm0-45.403c0 12.278-10.032 22.267-22.363 22.267h-8.996c-8.332 0-15.117 6.75-15.117 15.053v8.083h-7.24v-8.083c0-12.279 10.032-22.268 22.364-22.268h8.995c8.333 0 15.118-6.749 15.118-15.052V4.353h7.245v8.083z" fill="#2da176"/><path d="M81.139 5.46v7.114h12.508v4.995H81.139v9.8h-6.254V.459h20.423v4.994h-14.17zm16.45 8.454C97.589 5.919 103.843 0 112.378 0s14.788 5.881 14.788 13.914-6.292 13.914-14.788 13.914-14.79-5.92-14.79-13.914m23.241 0c0-5.114-3.626-8.611-8.452-8.611s-8.453 3.497-8.453 8.611 3.626 8.611 8.452 8.611 8.453-3.497 8.453-8.611m10.81 1.616V.46h6.254v14.838c0 5.114 2.236 7.227 6.02 7.227s6.02-2.113 6.02-7.227V.459h6.18v15.072c0 7.919-4.556 12.303-12.237 12.303s-12.237-4.384-12.237-12.303M187.08.46v26.909h-5.137l-13.474-16.336v16.336h-6.179V.459h5.174l13.437 16.336V.459h6.178Zm6.411 0h12.274c8.845 0 14.903 5.302 14.903 13.454s-6.058 13.455-14.903 13.455h-12.274zm11.965 21.795c5.364 0 8.882-3.19 8.882-8.341s-3.512-8.34-8.882-8.34h-5.717v16.68zm40.847.119v4.995h-20.922V.459h20.423v4.994h-14.207v5.844h12.546v4.844h-12.546v6.227h14.706zm22.199 4.995-5.212-7.498h-5.755v7.498h-6.254V.459h11.7c7.22 0 11.737 3.73 11.737 9.763 0 4.038-2.046 6.994-5.559 8.498l6.058 8.649zm-5.869-21.834h-5.098v9.38h5.098c3.822 0 5.756-1.768 5.756-4.693s-1.934-4.693-5.756-4.693zm14.903 19.185 2.122-4.692c2.28 1.655 5.673 2.806 8.92 2.806 3.709 0 5.212-1.233 5.212-2.881 0-5.039-15.71-1.58-15.71-11.574 0-4.573 3.707-8.379 11.39-8.379 3.398 0 6.873.805 9.38 2.384l-1.933 4.73c-2.507-1.421-5.098-2.113-7.492-2.113-3.708 0-5.136 1.384-5.136 3.076 0 4.956 15.711 1.535 15.711 11.417 0 4.497-3.746 8.34-11.466 8.34-4.283 0-8.61-1.27-11.004-3.113zM99.674 34.823v26.91h-6.255V50.698H81.145v11.033h-6.254v-26.91h6.254v10.612H93.42v-10.61zm6.178 15.071V34.823h6.254V49.66c0 5.115 2.236 7.228 6.02 7.228s6.02-2.113 6.02-7.228V34.823h6.179v15.071c0 7.92-4.555 12.304-12.237 12.304s-12.236-4.384-12.236-12.304m55.44 4.498c0 4.648-3.708 7.34-10.809 7.34H136.51v-26.91h13.203c6.759 0 10.233 2.806 10.233 6.995 0 2.693-1.39 4.769-3.588 5.92 3.014.962 4.94 3.265 4.94 6.648zm-18.573-14.877v6.341h6.217c3.05 0 4.712-1.076 4.712-3.19s-1.661-3.15-4.712-3.15zM155 53.737c0-2.27-1.736-3.346-4.977-3.346h-7.297v6.649h7.297c3.24 0 4.978-1 4.978-3.309z" fill="#1A1310"/></svg>
