<svg width="160" height="28" viewBox="0 0 160 28" fill="none" xmlns="http://www.w3.org/2000/svg">
<g clip-path="url(#clip0_294_28519)">
<path d="M85.5585 0.9375H79.6055V24.196H85.5585V0.9375Z" fill="#E21D38"/>
<path d="M88.0098 0.945312H105.996V5.69853H93.9628V9.9672H105.961V14.6223H93.9628V19.4448H106.059V24.198H88.0098V0.945312Z" fill="#E21D38"/>
<path d="M108.291 0.945312H114.273V19.1506H125.21V24.198H108.291V0.945312Z" fill="#E21D38"/>
<path d="M127.442 5.66392H120.779V0.945312H140.086V5.66392H133.389V24.198H127.442V5.66392Z" fill="#E21D38"/>
<path d="M146.057 16.4856C146.126 19.1333 147.608 20.5235 150.458 20.5235C152.95 20.5235 154.271 19.6525 154.271 18.2161C154.291 17.8844 154.217 17.5538 154.058 17.262C153.899 16.9703 153.661 16.7292 153.371 16.5664C151.981 15.8568 149.333 15.4127 145.93 14.0455C142.526 12.6784 140.819 10.4864 140.819 7.60793C140.819 3.2412 144.28 0.328125 150.1 0.328125C155.759 0.328125 159.22 3.36811 159.22 7.99442H153.625C153.371 5.82548 152.108 4.82176 149.714 4.82176C147.706 4.82176 146.478 5.76202 146.478 6.92725C146.478 8.65779 148.289 9.02698 151.946 10.2268C154.629 11.0979 156.561 11.7151 157.715 12.6207C158.454 13.2048 159.048 13.9529 159.448 14.8059C159.849 15.6589 160.045 16.5934 160.022 17.5355C160.022 22.0637 156.434 24.8787 149.898 24.8787C143.847 24.8787 140.715 22.1272 140.357 16.5029L146.057 16.4856Z" fill="#E21D38"/>
<path d="M24.3085 17.2973C23.5663 16.2377 22.5992 15.3552 21.4762 14.713C20.3579 14.1559 19.1198 13.8825 17.8709 13.917C17.7212 14.257 17.5053 14.5638 17.2358 14.8194C16.9663 15.0751 16.6485 15.2745 16.3011 15.4061C15.9537 15.5376 15.5836 15.5987 15.2123 15.5857C14.841 15.5726 14.4761 15.4858 14.1387 15.3302C12.5005 17.4646 12.662 19.2413 12.6735 19.3682C12.7716 22.114 15.4193 27.767 26.0333 27.7844C26.0333 27.5594 26.9389 20.7757 24.3028 17.3204" fill="#417EC0"/>
<path d="M15.7142 2.95071C12.7608 0.0664736 7.30956 -0.989156 0.306641 2.12582C0.306641 2.20081 2.41213 11.09 11.809 12.5091C12.0166 12.5091 12.2589 12.5437 12.5185 12.5725C12.575 11.8758 12.892 11.2259 13.4062 10.7523C13.9204 10.2787 14.5941 10.0162 15.2931 10.0171C15.6087 10.0176 15.9222 10.0682 16.2218 10.1671C18.9503 6.04261 16.043 3.25067 15.7142 2.95071Z" fill="#F58320"/>
<path d="M14.1384 15.3288C13.6571 15.1024 13.2505 14.7433 12.9664 14.2936C12.6823 13.844 12.5326 13.3225 12.5348 12.7907C12.5348 12.7214 12.5348 12.6407 12.5348 12.5657C12.0564 12.5071 11.5746 12.4801 11.0927 12.4849C8.63632 12.5223 6.25359 13.3293 4.28011 14.7923C0.340249 17.8727 -0.00585938 22.9258 -0.00585938 22.9258C0.207574 22.9258 7.17588 23.8834 11.4099 19.6897C11.8474 19.2517 12.2343 18.766 12.5636 18.2419L12.8578 17.7688C13.1253 16.8813 13.56 16.0531 14.1384 15.3288Z" fill="#5ABA47"/>
<path d="M59.9969 6.72867C59.0714 6.70409 58.1529 6.89507 57.314 7.28652C56.475 7.67796 55.7386 8.25914 55.1629 8.98414V8.30923C55.1599 7.88998 54.9916 7.48884 54.6946 7.19292C54.3976 6.897 53.9958 6.73017 53.5766 6.72867C53.1573 6.73017 52.7556 6.897 52.4586 7.19292C52.1616 7.48884 51.9933 7.88998 51.9902 8.30923V26.1511C51.9933 26.578 52.1646 26.9865 52.467 27.2878C52.7694 27.5891 53.1785 27.759 53.6054 27.7605C54.0318 27.759 54.4403 27.5889 54.7417 27.2874C55.0432 26.9859 55.2133 26.5775 55.2148 26.1511V19.8692C55.8313 20.5406 56.5827 21.0742 57.4197 21.435C58.2567 21.7959 59.1605 21.9758 60.0719 21.9632C63.6772 21.9632 67.1959 19.2866 67.1959 14.32C67.1786 9.26102 63.4291 6.72867 59.9969 6.72867ZM59.645 19.027C57.4357 19.027 55.1975 17.4292 55.1975 14.2623C55.1975 11.0954 57.4068 9.60713 59.6161 9.60713C61.8255 9.60713 63.9771 11.1185 63.9771 14.2911C63.9771 17.4638 61.8601 19.027 59.645 19.027Z" fill="#333F48"/>
<path d="M41.5392 21.9636C42.468 21.9902 43.3902 21.7996 44.2324 21.407C45.0746 21.0145 45.8136 20.4308 46.3904 19.7023V20.383C46.392 20.8027 46.5598 21.2047 46.8571 21.501C47.1544 21.7972 47.5571 21.9636 47.9768 21.9636C48.3965 21.9636 48.7991 21.7972 49.0964 21.501C49.3938 21.2047 49.5616 20.8027 49.5631 20.383V2.54113C49.5601 2.11477 49.3885 1.7069 49.086 1.40649C48.7834 1.10607 48.3743 0.937489 47.9479 0.9375C47.5226 0.939008 47.1149 1.10826 46.8136 1.40851C46.5123 1.70876 46.3416 2.11576 46.3385 2.54113V8.823C45.722 8.15164 44.9707 7.61807 44.1337 7.25722C43.2967 6.89637 42.3929 6.71638 41.4815 6.72904C37.8762 6.72904 34.3574 9.40561 34.3574 14.378C34.3574 19.3504 38.1069 21.9636 41.5392 21.9636ZM41.8968 9.66519C44.1061 9.66519 46.3443 11.2631 46.3443 14.4357C46.3443 17.6084 44.1292 19.0851 41.8968 19.0851C39.6644 19.0851 37.5358 17.5738 37.5358 14.4069C37.5358 11.24 39.6817 9.66519 41.8968 9.66519Z" fill="#333F48"/>
<path d="M30.8562 0.242188C30.2443 0.242188 29.6574 0.485287 29.2246 0.918006C28.7919 1.35073 28.5488 1.93762 28.5488 2.54957C28.5488 3.16153 28.7919 3.74842 29.2246 4.18114C29.6574 4.61386 30.2443 4.85696 30.8562 4.85696C31.4682 4.85696 32.0551 4.61386 32.4878 4.18114C32.9205 3.74842 33.1636 3.16153 33.1636 2.54957C33.1636 1.93762 32.9205 1.35073 32.4878 0.918006C32.0551 0.485287 31.4682 0.242188 30.8562 0.242188Z" fill="#333F48"/>
<path d="M30.8555 6.73438C30.4291 6.7359 30.0206 6.90594 29.7192 7.20744C29.4177 7.50893 29.2476 7.9174 29.2461 8.34378V20.4172C29.2625 20.8335 29.439 21.2273 29.7389 21.5165C30.0389 21.8056 30.4389 21.9677 30.8555 21.9689C31.2721 21.9677 31.6721 21.8056 31.972 21.5165C32.272 21.2273 32.4485 20.8335 32.4649 20.4172V20.3653V8.34378C32.4619 7.91787 32.2913 7.51027 31.9902 7.2091C31.689 6.90793 31.2814 6.7374 30.8555 6.73438Z" fill="#333F48"/>
</g>
<defs>
<clipPath id="clip0_294_28519">
<rect width="160" height="27.5214" fill="white" transform="translate(0 0.242188)"/>
</clipPath>
</defs>
</svg>
